<svg xmlns="http://www.w3.org/2000/svg" xmlns:xlink="http://www.w3.org/1999/xlink" width="1280" zoomAndPan="magnify" viewBox="0 0 960 479.999983" height="640" preserveAspectRatio="xMidYMid meet" version="1.0"><defs><g/><clipPath id="28330a3f89"><path d="M 54.351562 285.117188 L 198.351562 285.117188 L 198.351562 429.117188 L 54.351562 429.117188 Z M 54.351562 285.117188 " clip-rule="nonzero"/></clipPath><clipPath id="46d671074e"><path d="M 126.351562 285.117188 C 86.589844 285.117188 54.351562 317.351562 54.351562 357.117188 C 54.351562 396.882812 86.589844 429.117188 126.351562 429.117188 C 166.117188 429.117188 198.351562 396.882812 198.351562 357.117188 C 198.351562 317.351562 166.117188 285.117188 126.351562 285.117188 Z M 126.351562 285.117188 " clip-rule="nonzero"/></clipPath><clipPath id="d5245c68c4"><path d="M 761.648438 288.117188 L 905.648438 288.117188 L 905.648438 432.117188 L 761.648438 432.117188 Z M 761.648438 288.117188 " clip-rule="nonzero"/></clipPath><clipPath id="5fd28d5bfa"><path d="M 833.648438 288.117188 C 793.882812 288.117188 761.648438 320.351562 761.648438 360.117188 C 761.648438 399.882812 793.882812 432.117188 833.648438 432.117188 C 873.410156 432.117188 905.648438 399.882812 905.648438 360.117188 C 905.648438 320.351562 873.410156 288.117188 833.648438 288.117188 Z M 833.648438 288.117188 " clip-rule="nonzero"/></clipPath><clipPath id="f215af95c1"><path d="M 248.074219 263.121094 L 301.191406 263.121094 L 301.191406 316.238281 L 248.074219 316.238281 Z M 248.074219 263.121094 " clip-rule="nonzero"/></clipPath><clipPath id="eb85cf4b6c"><path d="M 274.632812 263.121094 C 259.964844 263.121094 248.074219 275.011719 248.074219 289.679688 C 248.074219 304.347656 259.964844 316.238281 274.632812 316.238281 C 289.300781 316.238281 301.191406 304.347656 301.191406 289.679688 C 301.191406 275.011719 289.300781 263.121094 274.632812 263.121094 Z M 274.632812 263.121094 " clip-rule="nonzero"/></clipPath><clipPath id="a67aca5beb"><path d="M 350.824219 404.011719 L 403.941406 404.011719 L 403.941406 457.128906 L 350.824219 457.128906 Z M 350.824219 404.011719 " clip-rule="nonzero"/></clipPath><clipPath id="9adc082f27"><path d="M 377.382812 404.011719 C 362.714844 404.011719 350.824219 415.902344 350.824219 430.570312 C 350.824219 445.238281 362.714844 457.128906 377.382812 457.128906 C 392.050781 457.128906 403.941406 445.238281 403.941406 430.570312 C 403.941406 415.902344 392.050781 404.011719 377.382812 404.011719 Z M 377.382812 404.011719 " clip-rule="nonzero"/></clipPath><clipPath id="efa7e0debd"><path d="M 453.441406 263.132812 L 506.558594 263.132812 L 506.558594 316.25 L 453.441406 316.25 Z M 453.441406 263.132812 " clip-rule="nonzero"/></clipPath><clipPath id="8d3ce65db9"><path d="M 480 263.132812 C 465.332031 263.132812 453.441406 275.023438 453.441406 289.691406 C 453.441406 304.359375 465.332031 316.25 480 316.25 C 494.667969 316.25 506.558594 304.359375 506.558594 289.691406 C 506.558594 275.023438 494.667969 263.132812 480 263.132812 Z M 480 263.132812 " clip-rule="nonzero"/></clipPath><clipPath id="b1f44d8aad"><path d="M 658.808594 263.132812 L 711.925781 263.132812 L 711.925781 316.25 L 658.808594 316.25 Z M 658.808594 263.132812 " clip-rule="nonzero"/></clipPath><clipPath id="3031077af5"><path d="M 685.367188 263.132812 C 670.699219 263.132812 658.808594 275.023438 658.808594 289.691406 C 658.808594 304.359375 670.699219 316.25 685.367188 316.25 C 700.035156 316.25 711.925781 304.359375 711.925781 289.691406 C 711.925781 275.023438 700.035156 263.132812 685.367188 263.132812 Z M 685.367188 263.132812 " clip-rule="nonzero"/></clipPath><clipPath id="6b55fb3cf7"><path d="M 556.191406 404.011719 L 609.308594 404.011719 L 609.308594 457.128906 L 556.191406 457.128906 Z M 556.191406 404.011719 " clip-rule="nonzero"/></clipPath><clipPath id="eef584d160"><path d="M 582.75 404.011719 C 568.082031 404.011719 556.191406 415.902344 556.191406 430.570312 C 556.191406 445.238281 568.082031 457.128906 582.75 457.128906 C 597.417969 457.128906 609.308594 445.238281 609.308594 430.570312 C 609.308594 415.902344 597.417969 404.011719 582.75 404.011719 Z M 582.75 404.011719 " clip-rule="nonzero"/></clipPath></defs><path stroke-linecap="butt" transform="matrix(0.75, 0, 0, 0.75, 0.000017, -17.250024)" fill="none" stroke-linejoin="miter" d="M 268.989581 46.307328 L 325.348961 46.307328 C 330.598961 46.307328 334.468753 49.151078 336.94792 54.83337 C 337.093753 55.546912 337.16667 56.14587 337.16667 56.619828 L 337.16667 60.48962 C 337.16667 64.500037 334.63542 67.937538 329.572919 70.802121 C 327.567711 71.468788 325.947919 71.802121 324.703127 71.802121 L 259.249997 71.802121 L 259.249997 84.692747 L 298.208334 84.692747 C 314.010418 84.692747 325.776044 89.682331 333.51042 99.661498 C 335.94792 103.432332 337.16667 106.604207 337.16667 109.182333 L 337.16667 124.510459 C 337.16667 130.474001 333.156253 136.349001 325.135419 142.125043 C 317.447918 146.708377 309.906251 149.000044 302.505209 149.000044 L 244.572913 149.000044 C 240.656246 149.000044 237.244787 146.781294 234.32812 142.338585 C 233.661454 140.906293 233.32812 139.619835 233.32812 138.474001 L 233.32812 135.682335 C 233.32812 130.474001 236.385412 126.635459 242.494788 124.151084 C 243.880204 123.718792 245.453121 123.50525 247.218746 123.50525 L 311.458335 123.50525 L 311.458335 110.614624 L 270.281248 110.614624 C 258.822914 110.614624 248.963538 107.036499 240.703121 99.87504 C 235.786454 94.958373 233.32812 89.968789 233.32812 84.906289 L 233.32812 71.947955 C 233.32812 63.541704 239.104162 56.33337 250.656247 50.317745 C 257.390622 47.645869 263.499998 46.307328 268.989581 46.307328 Z M 355.994796 46.307328 L 358.000005 46.307328 C 361.39063 46.307328 365.135422 48.598995 369.244797 53.182328 C 387.098966 70.802121 396.171883 79.630247 396.458341 79.68233 C 417.557301 58.531287 428.46876 47.958369 429.182302 47.958369 C 431.187511 46.859411 432.953136 46.307328 434.479177 46.307328 L 436.484386 46.307328 C 441.020845 46.307328 444.651053 48.937536 447.369803 54.187537 C 447.895845 55.572953 448.16147 56.786495 448.16147 57.838579 L 448.16147 60.276079 C 448.16147 63.901079 445.031262 68.343788 438.776053 73.593788 L 409.130217 102.880249 L 409.130217 137.04171 C 409.130217 142.29171 406.005217 146.208377 399.750008 148.786502 L 397.671883 149.000044 L 394.807299 149.000044 C 390.609382 149.000044 387.072924 146.375044 384.20834 141.125043 C 383.635424 139.453168 383.348965 138.04171 383.348965 136.895876 L 383.348965 102.880249 C 358.619797 78.583372 346.234379 66.265663 346.182296 65.932329 C 344.942712 63.593787 344.322921 61.635454 344.322921 60.057329 L 344.322921 58.27087 C 344.322921 53.541703 346.973962 49.817745 352.270838 47.098994 C 353.656255 46.572953 354.895838 46.307328 355.994796 46.307328 Z M 467.348972 46.307328 L 469.208347 46.307328 C 472.88543 46.307328 476.635431 48.45837 480.453139 52.755245 C 504.515641 76.43233 522.156268 93.692748 533.375018 104.531291 L 533.375018 60.057329 C 533.375018 53.661495 536.312519 49.27087 542.182311 46.880244 C 543.468769 46.500036 544.640644 46.307328 545.692728 46.307328 L 547.479186 46.307328 C 551.87502 46.307328 555.50002 48.86462 558.364604 53.973995 C 558.890645 55.546912 559.15627 56.765662 559.15627 57.625037 L 559.15627 137.901085 C 559.15627 141.864627 556.692729 145.22921 551.776062 147.994836 C 550.395853 148.666711 549.104186 149.000044 547.911478 149.000044 L 545.046894 149.000044 C 541.369811 149.000044 536.812519 145.82296 531.36981 139.474002 L 481.098973 90.348998 L 481.098973 136.682335 C 481.098973 142.270877 477.875014 146.302127 471.432305 148.786502 C 470.713555 148.927127 470.119805 149.000044 469.640639 149.000044 L 466.776055 149.000044 C 462.432305 149.000044 458.875013 146.375044 456.104179 141.125043 C 455.578137 139.739627 455.317721 138.520876 455.317721 137.468793 L 455.317721 58.27087 C 455.317721 53.062537 458.375013 49.223995 464.484388 46.739619 C 465.536472 46.453161 466.489597 46.307328 467.348972 46.307328 Z M 617.442733 46.307328 L 658.473986 46.307328 C 662.822945 46.307328 666.447945 48.86462 669.359404 53.973995 C 669.885446 55.546912 670.151071 56.765662 670.151071 57.625037 L 670.151071 60.48962 C 670.151071 64.593787 667.572945 68.031288 662.416695 70.802121 C 660.74482 71.468788 659.166695 71.802121 657.687528 71.802121 L 623.1719 71.802121 C 609.515649 71.802121 599.682315 77.531288 593.66669 88.989623 C 592.619815 92.140665 592.093773 95.171915 592.093773 98.083373 C 592.093773 107.395874 597.390648 114.864625 607.989608 120.500042 C 612.666691 122.50525 617.182317 123.50525 621.526067 123.50525 L 656.468778 123.50525 C 663.156278 123.50525 667.640654 126.682334 669.932321 133.031293 L 670.151071 135.036501 L 670.151071 137.901085 C 670.151071 141.864627 667.687529 145.22921 662.770862 147.994836 C 661.390653 148.666711 660.098987 149.000044 658.906278 149.000044 L 616.156275 149.000044 C 604.932316 149.000044 593.906273 144.489627 583.067731 135.463585 C 576.91148 129.213584 573.16148 124.291709 571.828146 120.713583 C 568.151063 113.4115 566.312521 106.390666 566.312521 99.661498 L 566.312521 95.864623 C 566.312521 83.640664 571.421896 72.114621 581.635439 61.276079 C 592.619815 51.296911 604.552107 46.307328 617.442733 46.307328 Z M 725.713575 46.307328 L 767.036495 46.307328 C 779.114621 46.307328 790.61983 51.08337 801.552122 60.630245 C 808.09379 67.411496 812.317748 73.614621 814.229207 79.250039 C 816.421915 85.312539 817.520874 90.494831 817.520874 94.791706 L 817.520874 100.302124 C 817.520874 111.906291 812.484415 123.145875 802.411498 134.031293 C 794.86983 140.718793 787.562538 145.036502 780.500037 146.994835 C 775.291704 148.333377 771.140662 149.000044 768.036495 149.000044 L 725.140658 149.000044 C 720.796908 149.000044 717.239616 146.375044 714.473991 141.125043 C 713.947949 139.739627 713.682324 138.520876 713.682324 137.468793 L 713.682324 58.27087 C 713.682324 53.062537 716.739616 49.223995 722.848991 46.739619 C 723.901075 46.453161 724.8542 46.307328 725.713575 46.307328 Z M 739.463576 71.802121 L 739.463576 123.50525 L 762.307328 123.50525 C 771.187537 123.50525 778.968787 120.140667 785.656288 113.4115 C 789.71358 108.541708 791.739622 103.552124 791.739622 98.442748 L 791.739622 96.651082 C 791.739622 89.015664 787.515663 82.328164 779.067746 76.598997 C 773.765662 73.40108 767.703162 71.802121 760.875036 71.802121 Z M 836.708375 46.307328 L 916.843798 46.307328 C 921.234423 46.307328 924.864632 48.86462 927.729216 53.973995 C 928.255257 55.546912 928.515674 56.765662 928.515674 57.625037 L 928.515674 60.48962 C 928.515674 64.593787 925.937549 68.031288 920.781298 70.802121 C 919.109423 71.468788 917.536506 71.802121 916.05734 71.802121 L 850.458376 71.802121 L 850.458376 84.906289 L 901.161505 84.906289 C 907.604214 84.906289 911.947964 87.463581 914.192756 92.567748 C 914.859423 94.052123 915.197965 95.411498 915.197965 96.651082 L 915.197965 98.442748 C 915.197965 103.645874 912.140673 107.489624 906.031297 109.973999 C 905.026089 110.260458 904.072964 110.401083 903.166714 110.401083 L 850.458376 110.401083 L 850.458376 123.50525 L 914.625048 123.50525 C 922.166715 123.50525 926.796924 127.156292 928.515674 134.463584 L 928.515674 137.901085 C 928.515674 141.864627 926.05734 145.22921 921.140673 147.994836 C 919.755257 148.666711 918.468798 149.000044 917.270881 149.000044 L 836.135458 149.000044 C 831.791708 149.000044 828.234416 146.375044 825.468791 141.125043 C 824.942749 139.739627 824.677124 138.520876 824.677124 137.468793 L 824.677124 58.27087 C 824.677124 53.062537 827.734416 49.223995 833.843792 46.739619 C 834.895875 46.453161 835.849 46.307328 836.708375 46.307328 Z M 947.06255 46.307328 L 949.067759 46.307328 C 954.458384 46.307328 958.802135 50.604203 962.09901 59.197954 C 962.291718 59.244829 970.739635 76.078163 987.44797 109.687541 C 987.687553 109.447958 997.593804 89.994831 1017.166722 51.322953 C 1019.890681 47.979203 1022.849015 46.307328 1026.046931 46.307328 L 1028.125057 46.307328 C 1032.322974 46.307328 1035.760474 48.671911 1038.437557 53.401078 C 1039.151099 54.734412 1039.510474 56.000037 1039.510474 57.192745 L 1039.510474 60.203162 C 1039.510474 61.588579 1035.572974 69.796913 1027.692765 84.838581 C 1008.218805 123.697959 998.119846 143.60421 997.401096 144.562544 C 994.682346 147.520877 991.838595 149.000044 988.880262 149.000044 L 986.661512 149.000044 C 981.218803 149.000044 977.015678 145.109419 974.057344 137.328168 C 948.755259 87.630248 936.104216 62.395871 936.104216 61.635454 C 935.817758 61.109412 935.671924 60.369829 935.671924 59.416704 L 935.671924 57.838579 C 935.671924 52.48962 938.921925 48.718786 945.411509 46.526078 C 945.93755 46.380244 946.489634 46.307328 947.06255 46.307328 Z M 947.06255 46.307328 " stroke="#000000" stroke-width="5.500012" stroke-opacity="1" stroke-miterlimit="4"/><g fill="#004aad" fill-opacity="1"><g transform="translate(174.996101, 94.499967)"><g><path d="M 26.75 -77.015625 L 69.015625 -77.015625 C 72.953125 -77.015625 75.851562 -74.882812 77.71875 -70.625 C 77.820312 -70.09375 77.875 -69.644531 77.875 -69.28125 L 77.875 -66.390625 C 77.875 -63.378906 75.976562 -60.800781 72.1875 -58.65625 C 70.6875 -58.15625 69.46875 -57.90625 68.53125 -57.90625 L 19.4375 -57.90625 L 19.4375 -48.234375 L 48.65625 -48.234375 C 60.507812 -48.234375 69.335938 -44.488281 75.140625 -37 C 76.960938 -34.175781 77.875 -31.796875 77.875 -29.859375 L 77.875 -18.375 C 77.875 -13.894531 74.867188 -9.488281 68.859375 -5.15625 C 63.085938 -1.71875 57.429688 0 51.890625 0 L 8.4375 0 C 5.5 0 2.9375 -1.664062 0.75 -5 C 0.25 -6.070312 0 -7.035156 0 -7.890625 L 0 -9.984375 C 0 -13.890625 2.289062 -16.773438 6.875 -18.640625 C 7.914062 -18.960938 9.097656 -19.125 10.421875 -19.125 L 58.59375 -19.125 L 58.59375 -28.796875 L 27.71875 -28.796875 C 19.125 -28.796875 11.726562 -31.476562 5.53125 -36.84375 C 1.84375 -40.53125 0 -44.273438 0 -48.078125 L 0 -57.796875 C 0 -64.097656 4.332031 -69.503906 13 -74.015625 C 18.050781 -76.015625 22.632812 -77.015625 26.75 -77.015625 Z M 26.75 -77.015625 "/></g></g></g><g fill="#004aad" fill-opacity="1"><g transform="translate(258.242135, 94.499967)"><g><path d="M 8.75 -77.015625 L 10.265625 -77.015625 C 12.804688 -77.015625 15.613281 -75.296875 18.6875 -71.859375 C 32.082031 -58.648438 38.890625 -52.03125 39.109375 -52 C 54.929688 -67.851562 63.109375 -75.78125 63.640625 -75.78125 C 65.148438 -76.601562 66.476562 -77.015625 67.625 -77.015625 L 69.125 -77.015625 C 72.53125 -77.015625 75.253906 -75.046875 77.296875 -71.109375 C 77.679688 -70.078125 77.875 -69.164062 77.875 -68.375 L 77.875 -66.546875 C 77.875 -63.828125 75.53125 -60.5 70.84375 -56.5625 L 48.609375 -34.59375 L 48.609375 -8.96875 C 48.609375 -5.03125 46.265625 -2.09375 41.578125 -0.15625 L 40.015625 0 L 37.859375 0 C 34.710938 0 32.066406 -1.96875 29.921875 -5.90625 C 29.484375 -7.15625 29.265625 -8.210938 29.265625 -9.078125 L 29.265625 -34.59375 C 10.722656 -52.8125 1.429688 -62.050781 1.390625 -62.3125 C 0.460938 -64.0625 0 -65.523438 0 -66.703125 L 0 -68.046875 C 0 -71.597656 1.988281 -74.394531 5.96875 -76.4375 C 7 -76.820312 7.925781 -77.015625 8.75 -77.015625 Z M 8.75 -77.015625 "/></g></g></g><g fill="#004aad" fill-opacity="1"><g transform="translate(341.488168, 94.499967)"><g><path d="M 9.03125 -77.015625 L 10.421875 -77.015625 C 13.179688 -77.015625 15.992188 -75.40625 18.859375 -72.1875 C 36.898438 -54.425781 50.128906 -41.484375 58.546875 -33.359375 L 58.546875 -66.703125 C 58.546875 -71.503906 60.75 -74.800781 65.15625 -76.59375 C 66.125 -76.875 67 -77.015625 67.78125 -77.015625 L 69.125 -77.015625 C 72.414062 -77.015625 75.140625 -75.101562 77.296875 -71.28125 C 77.679688 -70.09375 77.875 -69.175781 77.875 -68.53125 L 77.875 -8.328125 C 77.875 -5.359375 76.03125 -2.832031 72.34375 -0.75 C 71.3125 -0.25 70.347656 0 69.453125 0 L 67.296875 0 C 64.546875 0 61.128906 -2.378906 57.046875 -7.140625 L 19.34375 -43.984375 L 19.34375 -9.234375 C 19.34375 -5.046875 16.921875 -2.019531 12.078125 -0.15625 C 11.546875 -0.0507812 11.101562 0 10.75 0 L 8.59375 0 C 5.332031 0 2.664062 -1.96875 0.59375 -5.90625 C 0.195312 -6.945312 0 -7.859375 0 -8.640625 L 0 -68.046875 C 0 -71.953125 2.289062 -74.835938 6.875 -76.703125 C 7.664062 -76.910156 8.382812 -77.015625 9.03125 -77.015625 Z M 9.03125 -77.015625 "/></g></g></g><g fill="#004aad" fill-opacity="1"><g transform="translate(424.734202, 94.499967)"><g><path d="M 38.34375 -77.015625 L 69.125 -77.015625 C 72.382812 -77.015625 75.109375 -75.101562 77.296875 -71.28125 C 77.679688 -70.09375 77.875 -69.175781 77.875 -68.53125 L 77.875 -66.390625 C 77.875 -63.304688 75.941406 -60.726562 72.078125 -58.65625 C 70.828125 -58.15625 69.644531 -57.90625 68.53125 -57.90625 L 42.640625 -57.90625 C 32.398438 -57.90625 25.023438 -53.609375 20.515625 -45.015625 C 19.734375 -42.648438 19.34375 -40.375 19.34375 -38.1875 C 19.34375 -31.207031 23.316406 -25.601562 31.265625 -21.375 C 34.773438 -19.875 38.15625 -19.125 41.40625 -19.125 L 67.625 -19.125 C 72.632812 -19.125 76 -16.742188 77.71875 -11.984375 L 77.875 -10.46875 L 77.875 -8.328125 C 77.875 -5.359375 76.03125 -2.832031 72.34375 -0.75 C 71.3125 -0.25 70.347656 0 69.453125 0 L 37.390625 0 C 28.972656 0 20.695312 -3.382812 12.5625 -10.15625 C 7.945312 -14.84375 5.140625 -18.53125 4.140625 -21.21875 C 1.378906 -26.695312 0 -31.957031 0 -37 L 0 -39.859375 C 0 -49.023438 3.832031 -57.671875 11.5 -65.796875 C 19.726562 -73.273438 28.675781 -77.015625 38.34375 -77.015625 Z M 38.34375 -77.015625 "/></g></g></g><g fill="#004aad" fill-opacity="1"><g transform="translate(507.980235, 94.499967)"><g/></g></g><g fill="#004aad" fill-opacity="1"><g transform="translate(535.263452, 94.499967)"><g><path d="M 9.03125 -77.015625 L 40.015625 -77.015625 C 49.078125 -77.015625 57.707031 -73.4375 65.90625 -66.28125 C 70.8125 -61.195312 73.976562 -56.539062 75.40625 -52.3125 C 77.050781 -47.769531 77.875 -43.882812 77.875 -40.65625 L 77.875 -36.53125 C 77.875 -27.820312 74.097656 -19.382812 66.546875 -11.21875 C 60.890625 -6.207031 55.410156 -2.96875 50.109375 -1.5 C 46.210938 -0.5 43.097656 0 40.765625 0 L 8.59375 0 C 5.332031 0 2.664062 -1.96875 0.59375 -5.90625 C 0.195312 -6.945312 0 -7.859375 0 -8.640625 L 0 -68.046875 C 0 -71.953125 2.289062 -74.835938 6.875 -76.703125 C 7.664062 -76.910156 8.382812 -77.015625 9.03125 -77.015625 Z M 19.34375 -57.90625 L 19.34375 -19.125 L 36.46875 -19.125 C 43.125 -19.125 48.960938 -21.644531 53.984375 -26.6875 C 57.023438 -30.34375 58.546875 -34.085938 58.546875 -37.921875 L 58.546875 -39.265625 C 58.546875 -44.992188 55.375 -50.003906 49.03125 -54.296875 C 45.0625 -56.703125 40.515625 -57.90625 35.390625 -57.90625 Z M 19.34375 -57.90625 "/></g></g></g><g fill="#004aad" fill-opacity="1"><g transform="translate(618.509463, 94.499967)"><g><path d="M 9.03125 -77.015625 L 69.125 -77.015625 C 72.414062 -77.015625 75.140625 -75.101562 77.296875 -71.28125 C 77.679688 -70.09375 77.875 -69.175781 77.875 -68.53125 L 77.875 -66.390625 C 77.875 -63.304688 75.941406 -60.726562 72.078125 -58.65625 C 70.828125 -58.15625 69.644531 -57.90625 68.53125 -57.90625 L 19.34375 -57.90625 L 19.34375 -48.078125 L 57.359375 -48.078125 C 62.191406 -48.078125 65.453125 -46.160156 67.140625 -42.328125 C 67.640625 -41.210938 67.890625 -40.191406 67.890625 -39.265625 L 67.890625 -37.921875 C 67.890625 -34.015625 65.597656 -31.128906 61.015625 -29.265625 C 60.265625 -29.054688 59.550781 -28.953125 58.875 -28.953125 L 19.34375 -28.953125 L 19.34375 -19.125 L 67.46875 -19.125 C 73.125 -19.125 76.59375 -16.382812 77.875 -10.90625 L 77.875 -8.328125 C 77.875 -5.359375 76.03125 -2.832031 72.34375 -0.75 C 71.3125 -0.25 70.347656 0 69.453125 0 L 8.59375 0 C 5.332031 0 2.664062 -1.96875 0.59375 -5.90625 C 0.195312 -6.945312 0 -7.859375 0 -8.640625 L 0 -68.046875 C 0 -71.953125 2.289062 -74.835938 6.875 -76.703125 C 7.664062 -76.910156 8.382812 -77.015625 9.03125 -77.015625 Z M 9.03125 -77.015625 "/></g></g></g><g fill="#004aad" fill-opacity="1"><g transform="translate(701.75552, 94.499967)"><g><path d="M 8.546875 -77.015625 L 10.046875 -77.015625 C 14.085938 -77.015625 17.34375 -73.796875 19.8125 -67.359375 C 19.957031 -67.316406 26.296875 -54.691406 38.828125 -29.484375 C 39.015625 -29.660156 46.445312 -44.253906 61.125 -73.265625 C 63.164062 -75.765625 65.382812 -77.015625 67.78125 -77.015625 L 69.34375 -77.015625 C 72.488281 -77.015625 75.066406 -75.242188 77.078125 -71.703125 C 77.609375 -70.703125 77.875 -69.753906 77.875 -68.859375 L 77.875 -66.609375 C 77.875 -65.566406 74.921875 -59.40625 69.015625 -48.125 C 54.410156 -18.976562 46.835938 -4.046875 46.296875 -3.328125 C 44.253906 -1.109375 42.125 0 39.90625 0 L 38.25 0 C 34.164062 0 31.015625 -2.914062 28.796875 -8.75 C 9.816406 -46.03125 0.328125 -64.957031 0.328125 -65.53125 C 0.109375 -65.925781 0 -66.476562 0 -67.1875 L 0 -68.375 C 0 -72.382812 2.4375 -75.210938 7.3125 -76.859375 C 7.695312 -76.960938 8.109375 -77.015625 8.546875 -77.015625 Z M 8.546875 -77.015625 "/></g></g></g><path stroke-linecap="butt" transform="matrix(0.749997, 0.00199717, -0.00199717, 0.749997, 198.356939, 357.117659)" fill="none" stroke-linejoin="miter" d="M -0.00184494 1.999384 L 749.06335 1.999492 " stroke="#004aad" stroke-width="4" stroke-opacity="1" stroke-miterlimit="4"/><path stroke-linecap="round" transform="matrix(0.749997, 0.00199717, -0.00199717, 0.749997, 198.356939, 357.117659)" fill="none" stroke-linejoin="round" d="M 741.06297 -4.000058 L 749.06335 1.999492 L 741.063675 7.999983 " stroke="#004aad" stroke-width="4" stroke-opacity="1" stroke-miterlimit="4"/><g clip-path="url(#28330a3f89)"><g clip-path="url(#46d671074e)"><path fill="#004aad" d="M 54.351562 285.117188 L 198.351562 285.117188 L 198.351562 429.117188 L 54.351562 429.117188 Z M 54.351562 285.117188 " fill-opacity="1" fill-rule="nonzero"/></g></g><g fill="#b2b2b2" fill-opacity="1"><g transform="translate(95.849047, 349.617628)"><g><path d="M 7.90625 0.25 C 6.675781 0.25 5.578125 0.0976562 4.609375 -0.203125 C 3.640625 -0.503906 2.832031 -0.90625 2.1875 -1.40625 C 1.550781 -1.90625 1.0625 -2.453125 0.71875 -3.046875 L 2.65625 -5.40625 L 2.96875 -5.40625 C 3.5 -4.613281 4.175781 -3.976562 5 -3.5 C 5.832031 -3.03125 6.800781 -2.796875 7.90625 -2.796875 C 8.851562 -2.796875 9.566406 -2.992188 10.046875 -3.390625 C 10.523438 -3.785156 10.765625 -4.335938 10.765625 -5.046875 C 10.765625 -5.460938 10.6875 -5.8125 10.53125 -6.09375 C 10.375 -6.382812 10.117188 -6.628906 9.765625 -6.828125 C 9.410156 -7.035156 8.925781 -7.210938 8.3125 -7.359375 L 6.015625 -7.890625 C 4.410156 -8.253906 3.210938 -8.859375 2.421875 -9.703125 C 1.640625 -10.554688 1.25 -11.664062 1.25 -13.03125 C 1.25 -14.03125 1.5 -14.910156 2 -15.671875 C 2.507812 -16.441406 3.25 -17.039062 4.21875 -17.46875 C 5.1875 -17.894531 6.335938 -18.109375 7.671875 -18.109375 C 9.046875 -18.109375 10.222656 -17.925781 11.203125 -17.5625 C 12.191406 -17.195312 13.023438 -16.640625 13.703125 -15.890625 L 11.953125 -13.5 L 11.640625 -13.5 C 11.140625 -14.03125 10.5625 -14.425781 9.90625 -14.6875 C 9.257812 -14.957031 8.515625 -15.09375 7.671875 -15.09375 C 6.703125 -15.09375 5.96875 -14.921875 5.46875 -14.578125 C 4.96875 -14.234375 4.71875 -13.757812 4.71875 -13.15625 C 4.71875 -12.59375 4.894531 -12.144531 5.25 -11.8125 C 5.601562 -11.476562 6.210938 -11.21875 7.078125 -11.03125 L 9.421875 -10.546875 C 11.160156 -10.179688 12.421875 -9.5625 13.203125 -8.6875 C 13.984375 -7.8125 14.375 -6.671875 14.375 -5.265625 C 14.375 -4.148438 14.128906 -3.175781 13.640625 -2.34375 C 13.160156 -1.519531 12.4375 -0.878906 11.46875 -0.421875 C 10.5 0.0234375 9.3125 0.25 7.90625 0.25 Z M 7.90625 0.25 "/></g></g></g><g fill="#b2b2b2" fill-opacity="1"><g transform="translate(111.178682, 349.617628)"><g><path d="M 9.296875 -3.203125 L 10.171875 -0.703125 C 9.804688 -0.398438 9.34375 -0.164062 8.78125 0 C 8.226562 0.164062 7.601562 0.25 6.90625 0.25 C 5.445312 0.25 4.335938 -0.144531 3.578125 -0.9375 C 2.828125 -1.726562 2.453125 -2.878906 2.453125 -4.390625 L 2.453125 -10.796875 L 0.40625 -10.796875 L 0.40625 -13.484375 L 2.453125 -13.484375 L 2.453125 -16.09375 L 5.828125 -16.65625 L 5.828125 -13.484375 L 9.65625 -13.484375 L 9.65625 -10.796875 L 5.828125 -10.796875 L 5.828125 -4.640625 C 5.828125 -3.972656 5.96875 -3.484375 6.25 -3.171875 C 6.53125 -2.867188 6.929688 -2.71875 7.453125 -2.71875 C 8.054688 -2.71875 8.582031 -2.878906 9.03125 -3.203125 Z M 9.296875 -3.203125 "/></g></g></g><g fill="#b2b2b2" fill-opacity="1"><g transform="translate(121.638478, 349.617628)"><g><path d="M 5.25 0.25 C 4.382812 0.25 3.632812 0.09375 3 -0.21875 C 2.363281 -0.539062 1.875 -1.007812 1.53125 -1.625 C 1.195312 -2.238281 1.03125 -2.972656 1.03125 -3.828125 C 1.03125 -4.628906 1.195312 -5.300781 1.53125 -5.84375 C 1.875 -6.382812 2.40625 -6.828125 3.125 -7.171875 C 3.84375 -7.515625 4.78125 -7.78125 5.9375 -7.96875 C 6.738281 -8.101562 7.347656 -8.242188 7.765625 -8.390625 C 8.191406 -8.546875 8.476562 -8.722656 8.625 -8.921875 C 8.769531 -9.117188 8.84375 -9.367188 8.84375 -9.671875 C 8.84375 -10.097656 8.691406 -10.425781 8.390625 -10.65625 C 8.085938 -10.882812 7.585938 -11 6.890625 -11 C 6.140625 -11 5.425781 -10.832031 4.75 -10.5 C 4.070312 -10.164062 3.484375 -9.726562 2.984375 -9.1875 L 2.75 -9.1875 L 1.328125 -11.3125 C 2.015625 -12.070312 2.847656 -12.660156 3.828125 -13.078125 C 4.816406 -13.503906 5.894531 -13.71875 7.0625 -13.71875 C 8.84375 -13.71875 10.128906 -13.335938 10.921875 -12.578125 C 11.722656 -11.828125 12.125 -10.753906 12.125 -9.359375 L 12.125 -3.515625 C 12.125 -2.910156 12.390625 -2.609375 12.921875 -2.609375 C 13.117188 -2.609375 13.316406 -2.644531 13.515625 -2.71875 L 13.6875 -2.671875 L 13.921875 -0.3125 C 13.734375 -0.195312 13.472656 -0.0976562 13.140625 -0.015625 C 12.804688 0.0546875 12.441406 0.09375 12.046875 0.09375 C 11.242188 0.09375 10.613281 -0.0546875 10.15625 -0.359375 C 9.707031 -0.671875 9.382812 -1.15625 9.1875 -1.8125 L 8.9375 -1.84375 C 8.28125 -0.445312 7.050781 0.25 5.25 0.25 Z M 6.328125 -2.265625 C 7.109375 -2.265625 7.734375 -2.523438 8.203125 -3.046875 C 8.671875 -3.578125 8.90625 -4.3125 8.90625 -5.25 L 8.90625 -6.609375 L 8.671875 -6.671875 C 8.460938 -6.503906 8.191406 -6.363281 7.859375 -6.25 C 7.535156 -6.144531 7.066406 -6.039062 6.453125 -5.9375 C 5.710938 -5.8125 5.179688 -5.597656 4.859375 -5.296875 C 4.535156 -5.003906 4.375 -4.585938 4.375 -4.046875 C 4.375 -3.460938 4.546875 -3.019531 4.890625 -2.71875 C 5.234375 -2.414062 5.710938 -2.265625 6.328125 -2.265625 Z M 6.328125 -2.265625 "/></g></g></g><g fill="#b2b2b2" fill-opacity="1"><g transform="translate(135.833041, 349.617628)"><g><path d="M 1.9375 0 L 1.9375 -13.46875 L 5.21875 -13.46875 L 5.21875 -11.46875 L 5.484375 -11.40625 C 5.804688 -12.15625 6.234375 -12.707031 6.765625 -13.0625 C 7.296875 -13.414062 7.9375 -13.59375 8.6875 -13.59375 C 9.457031 -13.59375 10.039062 -13.460938 10.4375 -13.203125 L 9.859375 -10.28125 L 9.609375 -10.234375 C 9.390625 -10.316406 9.175781 -10.378906 8.96875 -10.421875 C 8.769531 -10.460938 8.523438 -10.484375 8.234375 -10.484375 C 7.285156 -10.484375 6.5625 -10.148438 6.0625 -9.484375 C 5.570312 -8.828125 5.328125 -7.765625 5.328125 -6.296875 L 5.328125 0 Z M 1.9375 0 "/></g></g></g><g fill="#b2b2b2" fill-opacity="1"><g transform="translate(146.390478, 349.617628)"><g><path d="M 9.296875 -3.203125 L 10.171875 -0.703125 C 9.804688 -0.398438 9.34375 -0.164062 8.78125 0 C 8.226562 0.164062 7.601562 0.25 6.90625 0.25 C 5.445312 0.25 4.335938 -0.144531 3.578125 -0.9375 C 2.828125 -1.726562 2.453125 -2.878906 2.453125 -4.390625 L 2.453125 -10.796875 L 0.40625 -10.796875 L 0.40625 -13.484375 L 2.453125 -13.484375 L 2.453125 -16.09375 L 5.828125 -16.65625 L 5.828125 -13.484375 L 9.65625 -13.484375 L 9.65625 -10.796875 L 5.828125 -10.796875 L 5.828125 -4.640625 C 5.828125 -3.972656 5.96875 -3.484375 6.25 -3.171875 C 6.53125 -2.867188 6.929688 -2.71875 7.453125 -2.71875 C 8.054688 -2.71875 8.582031 -2.878906 9.03125 -3.203125 Z M 9.296875 -3.203125 "/></g></g></g><g fill="#b2b2b2" fill-opacity="1"><g transform="translate(86.251392, 384.117626)"><g><path d="M 7.90625 0.25 C 6.675781 0.25 5.578125 0.0976562 4.609375 -0.203125 C 3.640625 -0.503906 2.832031 -0.90625 2.1875 -1.40625 C 1.550781 -1.90625 1.0625 -2.453125 0.71875 -3.046875 L 2.65625 -5.40625 L 2.96875 -5.40625 C 3.5 -4.613281 4.175781 -3.976562 5 -3.5 C 5.832031 -3.03125 6.800781 -2.796875 7.90625 -2.796875 C 8.851562 -2.796875 9.566406 -2.992188 10.046875 -3.390625 C 10.523438 -3.785156 10.765625 -4.335938 10.765625 -5.046875 C 10.765625 -5.460938 10.6875 -5.8125 10.53125 -6.09375 C 10.375 -6.382812 10.117188 -6.628906 9.765625 -6.828125 C 9.410156 -7.035156 8.925781 -7.210938 8.3125 -7.359375 L 6.015625 -7.890625 C 4.410156 -8.253906 3.210938 -8.859375 2.421875 -9.703125 C 1.640625 -10.554688 1.25 -11.664062 1.25 -13.03125 C 1.25 -14.03125 1.5 -14.910156 2 -15.671875 C 2.507812 -16.441406 3.25 -17.039062 4.21875 -17.46875 C 5.1875 -17.894531 6.335938 -18.109375 7.671875 -18.109375 C 9.046875 -18.109375 10.222656 -17.925781 11.203125 -17.5625 C 12.191406 -17.195312 13.023438 -16.640625 13.703125 -15.890625 L 11.953125 -13.5 L 11.640625 -13.5 C 11.140625 -14.03125 10.5625 -14.425781 9.90625 -14.6875 C 9.257812 -14.957031 8.515625 -15.09375 7.671875 -15.09375 C 6.703125 -15.09375 5.96875 -14.921875 5.46875 -14.578125 C 4.96875 -14.234375 4.71875 -13.757812 4.71875 -13.15625 C 4.71875 -12.59375 4.894531 -12.144531 5.25 -11.8125 C 5.601562 -11.476562 6.210938 -11.21875 7.078125 -11.03125 L 9.421875 -10.546875 C 11.160156 -10.179688 12.421875 -9.5625 13.203125 -8.6875 C 13.984375 -7.8125 14.375 -6.671875 14.375 -5.265625 C 14.375 -4.148438 14.128906 -3.175781 13.640625 -2.34375 C 13.160156 -1.519531 12.4375 -0.878906 11.46875 -0.421875 C 10.5 0.0234375 9.3125 0.25 7.90625 0.25 Z M 7.90625 0.25 "/></g></g></g><g fill="#b2b2b2" fill-opacity="1"><g transform="translate(101.581026, 384.117626)"><g><path d="M 13.3125 -5.96875 L 4.65625 -5.96875 C 4.75 -4.800781 5.078125 -3.945312 5.640625 -3.40625 C 6.210938 -2.875 6.992188 -2.609375 7.984375 -2.609375 C 8.753906 -2.609375 9.378906 -2.753906 9.859375 -3.046875 C 10.335938 -3.335938 10.722656 -3.773438 11.015625 -4.359375 L 11.28125 -4.359375 L 13.53125 -2.921875 C 13.082031 -1.972656 12.414062 -1.207031 11.53125 -0.625 C 10.644531 -0.0390625 9.460938 0.25 7.984375 0.25 C 6.585938 0.25 5.382812 -0.0078125 4.375 -0.53125 C 3.363281 -1.0625 2.582031 -1.847656 2.03125 -2.890625 C 1.476562 -3.941406 1.203125 -5.21875 1.203125 -6.71875 C 1.203125 -8.25 1.488281 -9.539062 2.0625 -10.59375 C 2.644531 -11.644531 3.425781 -12.425781 4.40625 -12.9375 C 5.394531 -13.457031 6.503906 -13.71875 7.734375 -13.71875 C 9.640625 -13.71875 11.097656 -13.210938 12.109375 -12.203125 C 13.128906 -11.191406 13.640625 -9.710938 13.640625 -7.765625 C 13.640625 -7.054688 13.613281 -6.503906 13.5625 -6.109375 Z M 10.40625 -8.15625 C 10.375 -9.175781 10.132812 -9.921875 9.6875 -10.390625 C 9.238281 -10.859375 8.585938 -11.09375 7.734375 -11.09375 C 6.023438 -11.09375 5.019531 -10.113281 4.71875 -8.15625 Z M 10.40625 -8.15625 "/></g></g></g><g fill="#b2b2b2" fill-opacity="1"><g transform="translate(116.214974, 384.117626)"><g><path d="M 1.9375 0 L 1.9375 -13.46875 L 5.21875 -13.46875 L 5.21875 -11.46875 L 5.484375 -11.40625 C 5.804688 -12.15625 6.234375 -12.707031 6.765625 -13.0625 C 7.296875 -13.414062 7.9375 -13.59375 8.6875 -13.59375 C 9.457031 -13.59375 10.039062 -13.460938 10.4375 -13.203125 L 9.859375 -10.28125 L 9.609375 -10.234375 C 9.390625 -10.316406 9.175781 -10.378906 8.96875 -10.421875 C 8.769531 -10.460938 8.523438 -10.484375 8.234375 -10.484375 C 7.285156 -10.484375 6.5625 -10.148438 6.0625 -9.484375 C 5.570312 -8.828125 5.328125 -7.765625 5.328125 -6.296875 L 5.328125 0 Z M 1.9375 0 "/></g></g></g><g fill="#b2b2b2" fill-opacity="1"><g transform="translate(126.772411, 384.117626)"><g><path d="M 9.265625 0 L 5.234375 0 L 0.25 -13.46875 L 3.796875 -13.46875 L 7.140625 -3.875 L 7.421875 -3.875 L 10.78125 -13.46875 L 14.234375 -13.46875 Z M 9.265625 0 "/></g></g></g><g fill="#b2b2b2" fill-opacity="1"><g transform="translate(141.247687, 384.117626)"><g><path d="M 13.3125 -5.96875 L 4.65625 -5.96875 C 4.75 -4.800781 5.078125 -3.945312 5.640625 -3.40625 C 6.210938 -2.875 6.992188 -2.609375 7.984375 -2.609375 C 8.753906 -2.609375 9.378906 -2.753906 9.859375 -3.046875 C 10.335938 -3.335938 10.722656 -3.773438 11.015625 -4.359375 L 11.28125 -4.359375 L 13.53125 -2.921875 C 13.082031 -1.972656 12.414062 -1.207031 11.53125 -0.625 C 10.644531 -0.0390625 9.460938 0.25 7.984375 0.25 C 6.585938 0.25 5.382812 -0.0078125 4.375 -0.53125 C 3.363281 -1.0625 2.582031 -1.847656 2.03125 -2.890625 C 1.476562 -3.941406 1.203125 -5.21875 1.203125 -6.71875 C 1.203125 -8.25 1.488281 -9.539062 2.0625 -10.59375 C 2.644531 -11.644531 3.425781 -12.425781 4.40625 -12.9375 C 5.394531 -13.457031 6.503906 -13.71875 7.734375 -13.71875 C 9.640625 -13.71875 11.097656 -13.210938 12.109375 -12.203125 C 13.128906 -11.191406 13.640625 -9.710938 13.640625 -7.765625 C 13.640625 -7.054688 13.613281 -6.503906 13.5625 -6.109375 Z M 10.40625 -8.15625 C 10.375 -9.175781 10.132812 -9.921875 9.6875 -10.390625 C 9.238281 -10.859375 8.585938 -11.09375 7.734375 -11.09375 C 6.023438 -11.09375 5.019531 -10.113281 4.71875 -8.15625 Z M 10.40625 -8.15625 "/></g></g></g><g fill="#b2b2b2" fill-opacity="1"><g transform="translate(155.881635, 384.117626)"><g><path d="M 1.9375 0 L 1.9375 -13.46875 L 5.21875 -13.46875 L 5.21875 -11.46875 L 5.484375 -11.40625 C 5.804688 -12.15625 6.234375 -12.707031 6.765625 -13.0625 C 7.296875 -13.414062 7.9375 -13.59375 8.6875 -13.59375 C 9.457031 -13.59375 10.039062 -13.460938 10.4375 -13.203125 L 9.859375 -10.28125 L 9.609375 -10.234375 C 9.390625 -10.316406 9.175781 -10.378906 8.96875 -10.421875 C 8.769531 -10.460938 8.523438 -10.484375 8.234375 -10.484375 C 7.285156 -10.484375 6.5625 -10.148438 6.0625 -9.484375 C 5.570312 -8.828125 5.328125 -7.765625 5.328125 -6.296875 L 5.328125 0 Z M 1.9375 0 "/></g></g></g><g clip-path="url(#d5245c68c4)"><g clip-path="url(#5fd28d5bfa)"><path fill="#004aad" d="M 761.648438 288.117188 L 905.648438 288.117188 L 905.648438 432.117188 L 761.648438 432.117188 Z M 761.648438 288.117188 " fill-opacity="1" fill-rule="nonzero"/></g></g><g fill="#b2b2b2" fill-opacity="1"><g transform="translate(804.865785, 352.617628)"><g><path d="M 7.90625 0.25 C 6.675781 0.25 5.578125 0.0976562 4.609375 -0.203125 C 3.640625 -0.503906 2.832031 -0.90625 2.1875 -1.40625 C 1.550781 -1.90625 1.0625 -2.453125 0.71875 -3.046875 L 2.65625 -5.40625 L 2.96875 -5.40625 C 3.5 -4.613281 4.175781 -3.976562 5 -3.5 C 5.832031 -3.03125 6.800781 -2.796875 7.90625 -2.796875 C 8.851562 -2.796875 9.566406 -2.992188 10.046875 -3.390625 C 10.523438 -3.785156 10.765625 -4.335938 10.765625 -5.046875 C 10.765625 -5.460938 10.6875 -5.8125 10.53125 -6.09375 C 10.375 -6.382812 10.117188 -6.628906 9.765625 -6.828125 C 9.410156 -7.035156 8.925781 -7.210938 8.3125 -7.359375 L 6.015625 -7.890625 C 4.410156 -8.253906 3.210938 -8.859375 2.421875 -9.703125 C 1.640625 -10.554688 1.25 -11.664062 1.25 -13.03125 C 1.25 -14.03125 1.5 -14.910156 2 -15.671875 C 2.507812 -16.441406 3.25 -17.039062 4.21875 -17.46875 C 5.1875 -17.894531 6.335938 -18.109375 7.671875 -18.109375 C 9.046875 -18.109375 10.222656 -17.925781 11.203125 -17.5625 C 12.191406 -17.195312 13.023438 -16.640625 13.703125 -15.890625 L 11.953125 -13.5 L 11.640625 -13.5 C 11.140625 -14.03125 10.5625 -14.425781 9.90625 -14.6875 C 9.257812 -14.957031 8.515625 -15.09375 7.671875 -15.09375 C 6.703125 -15.09375 5.96875 -14.921875 5.46875 -14.578125 C 4.96875 -14.234375 4.71875 -13.757812 4.71875 -13.15625 C 4.71875 -12.59375 4.894531 -12.144531 5.25 -11.8125 C 5.601562 -11.476562 6.210938 -11.21875 7.078125 -11.03125 L 9.421875 -10.546875 C 11.160156 -10.179688 12.421875 -9.5625 13.203125 -8.6875 C 13.984375 -7.8125 14.375 -6.671875 14.375 -5.265625 C 14.375 -4.148438 14.128906 -3.175781 13.640625 -2.34375 C 13.160156 -1.519531 12.4375 -0.878906 11.46875 -0.421875 C 10.5 0.0234375 9.3125 0.25 7.90625 0.25 Z M 7.90625 0.25 "/></g></g></g><g fill="#b2b2b2" fill-opacity="1"><g transform="translate(820.195419, 352.617628)"><g><path d="M 9.296875 -3.203125 L 10.171875 -0.703125 C 9.804688 -0.398438 9.34375 -0.164062 8.78125 0 C 8.226562 0.164062 7.601562 0.25 6.90625 0.25 C 5.445312 0.25 4.335938 -0.144531 3.578125 -0.9375 C 2.828125 -1.726562 2.453125 -2.878906 2.453125 -4.390625 L 2.453125 -10.796875 L 0.40625 -10.796875 L 0.40625 -13.484375 L 2.453125 -13.484375 L 2.453125 -16.09375 L 5.828125 -16.65625 L 5.828125 -13.484375 L 9.65625 -13.484375 L 9.65625 -10.796875 L 5.828125 -10.796875 L 5.828125 -4.640625 C 5.828125 -3.972656 5.96875 -3.484375 6.25 -3.171875 C 6.53125 -2.867188 6.929688 -2.71875 7.453125 -2.71875 C 8.054688 -2.71875 8.582031 -2.878906 9.03125 -3.203125 Z M 9.296875 -3.203125 "/></g></g></g><g fill="#b2b2b2" fill-opacity="1"><g transform="translate(830.655215, 352.617628)"><g><path d="M 7.828125 0.25 C 6.503906 0.25 5.34375 -0.0195312 4.34375 -0.5625 C 3.351562 -1.101562 2.582031 -1.894531 2.03125 -2.9375 C 1.476562 -3.976562 1.203125 -5.238281 1.203125 -6.71875 C 1.203125 -8.207031 1.476562 -9.472656 2.03125 -10.515625 C 2.582031 -11.566406 3.351562 -12.363281 4.34375 -12.90625 C 5.34375 -13.445312 6.503906 -13.71875 7.828125 -13.71875 C 9.140625 -13.71875 10.296875 -13.445312 11.296875 -12.90625 C 12.296875 -12.363281 13.070312 -11.566406 13.625 -10.515625 C 14.175781 -9.472656 14.453125 -8.207031 14.453125 -6.71875 C 14.453125 -5.238281 14.175781 -3.976562 13.625 -2.9375 C 13.070312 -1.894531 12.296875 -1.101562 11.296875 -0.5625 C 10.296875 -0.0195312 9.140625 0.25 7.828125 0.25 Z M 7.828125 -2.609375 C 9.921875 -2.609375 10.96875 -3.976562 10.96875 -6.71875 C 10.96875 -8.144531 10.695312 -9.191406 10.15625 -9.859375 C 9.613281 -10.523438 8.835938 -10.859375 7.828125 -10.859375 C 5.734375 -10.859375 4.6875 -9.476562 4.6875 -6.71875 C 4.6875 -3.976562 5.734375 -2.609375 7.828125 -2.609375 Z M 7.828125 -2.609375 "/></g></g></g><g fill="#b2b2b2" fill-opacity="1"><g transform="translate(846.302183, 352.617628)"><g><path d="M 1.9375 5.453125 L 1.9375 -13.46875 L 5.328125 -13.46875 L 5.328125 -11.703125 L 5.578125 -11.65625 C 5.972656 -12.34375 6.503906 -12.859375 7.171875 -13.203125 C 7.835938 -13.546875 8.617188 -13.71875 9.515625 -13.71875 C 10.597656 -13.71875 11.546875 -13.460938 12.359375 -12.953125 C 13.171875 -12.441406 13.800781 -11.660156 14.25 -10.609375 C 14.695312 -9.566406 14.921875 -8.269531 14.921875 -6.71875 C 14.921875 -5.1875 14.679688 -3.898438 14.203125 -2.859375 C 13.734375 -1.816406 13.078125 -1.035156 12.234375 -0.515625 C 11.390625 -0.00390625 10.410156 0.25 9.296875 0.25 C 8.460938 0.25 7.738281 0.109375 7.125 -0.171875 C 6.519531 -0.453125 6.003906 -0.890625 5.578125 -1.484375 L 5.328125 -1.421875 L 5.328125 5.453125 Z M 8.359375 -2.609375 C 9.367188 -2.609375 10.132812 -2.9375 10.65625 -3.59375 C 11.175781 -4.257812 11.4375 -5.300781 11.4375 -6.71875 C 11.4375 -8.144531 11.175781 -9.191406 10.65625 -9.859375 C 10.132812 -10.523438 9.367188 -10.859375 8.359375 -10.859375 C 7.421875 -10.859375 6.671875 -10.515625 6.109375 -9.828125 C 5.554688 -9.140625 5.28125 -8.101562 5.28125 -6.71875 C 5.28125 -5.34375 5.554688 -4.3125 6.109375 -3.625 C 6.671875 -2.945312 7.421875 -2.609375 8.359375 -2.609375 Z M 8.359375 -2.609375 "/></g></g></g><g fill="#b2b2b2" fill-opacity="1"><g transform="translate(793.545473, 387.117625)"><g><path d="M 7.90625 0.25 C 6.675781 0.25 5.578125 0.0976562 4.609375 -0.203125 C 3.640625 -0.503906 2.832031 -0.90625 2.1875 -1.40625 C 1.550781 -1.90625 1.0625 -2.453125 0.71875 -3.046875 L 2.65625 -5.40625 L 2.96875 -5.40625 C 3.5 -4.613281 4.175781 -3.976562 5 -3.5 C 5.832031 -3.03125 6.800781 -2.796875 7.90625 -2.796875 C 8.851562 -2.796875 9.566406 -2.992188 10.046875 -3.390625 C 10.523438 -3.785156 10.765625 -4.335938 10.765625 -5.046875 C 10.765625 -5.460938 10.6875 -5.8125 10.53125 -6.09375 C 10.375 -6.382812 10.117188 -6.628906 9.765625 -6.828125 C 9.410156 -7.035156 8.925781 -7.210938 8.3125 -7.359375 L 6.015625 -7.890625 C 4.410156 -8.253906 3.210938 -8.859375 2.421875 -9.703125 C 1.640625 -10.554688 1.25 -11.664062 1.25 -13.03125 C 1.25 -14.03125 1.5 -14.910156 2 -15.671875 C 2.507812 -16.441406 3.25 -17.039062 4.21875 -17.46875 C 5.1875 -17.894531 6.335938 -18.109375 7.671875 -18.109375 C 9.046875 -18.109375 10.222656 -17.925781 11.203125 -17.5625 C 12.191406 -17.195312 13.023438 -16.640625 13.703125 -15.890625 L 11.953125 -13.5 L 11.640625 -13.5 C 11.140625 -14.03125 10.5625 -14.425781 9.90625 -14.6875 C 9.257812 -14.957031 8.515625 -15.09375 7.671875 -15.09375 C 6.703125 -15.09375 5.96875 -14.921875 5.46875 -14.578125 C 4.96875 -14.234375 4.71875 -13.757812 4.71875 -13.15625 C 4.71875 -12.59375 4.894531 -12.144531 5.25 -11.8125 C 5.601562 -11.476562 6.210938 -11.21875 7.078125 -11.03125 L 9.421875 -10.546875 C 11.160156 -10.179688 12.421875 -9.5625 13.203125 -8.6875 C 13.984375 -7.8125 14.375 -6.671875 14.375 -5.265625 C 14.375 -4.148438 14.128906 -3.175781 13.640625 -2.34375 C 13.160156 -1.519531 12.4375 -0.878906 11.46875 -0.421875 C 10.5 0.0234375 9.3125 0.25 7.90625 0.25 Z M 7.90625 0.25 "/></g></g></g><g fill="#b2b2b2" fill-opacity="1"><g transform="translate(808.875108, 387.117625)"><g><path d="M 13.3125 -5.96875 L 4.65625 -5.96875 C 4.75 -4.800781 5.078125 -3.945312 5.640625 -3.40625 C 6.210938 -2.875 6.992188 -2.609375 7.984375 -2.609375 C 8.753906 -2.609375 9.378906 -2.753906 9.859375 -3.046875 C 10.335938 -3.335938 10.722656 -3.773438 11.015625 -4.359375 L 11.28125 -4.359375 L 13.53125 -2.921875 C 13.082031 -1.972656 12.414062 -1.207031 11.53125 -0.625 C 10.644531 -0.0390625 9.460938 0.25 7.984375 0.25 C 6.585938 0.25 5.382812 -0.0078125 4.375 -0.53125 C 3.363281 -1.0625 2.582031 -1.847656 2.03125 -2.890625 C 1.476562 -3.941406 1.203125 -5.21875 1.203125 -6.71875 C 1.203125 -8.25 1.488281 -9.539062 2.0625 -10.59375 C 2.644531 -11.644531 3.425781 -12.425781 4.40625 -12.9375 C 5.394531 -13.457031 6.503906 -13.71875 7.734375 -13.71875 C 9.640625 -13.71875 11.097656 -13.210938 12.109375 -12.203125 C 13.128906 -11.191406 13.640625 -9.710938 13.640625 -7.765625 C 13.640625 -7.054688 13.613281 -6.503906 13.5625 -6.109375 Z M 10.40625 -8.15625 C 10.375 -9.175781 10.132812 -9.921875 9.6875 -10.390625 C 9.238281 -10.859375 8.585938 -11.09375 7.734375 -11.09375 C 6.023438 -11.09375 5.019531 -10.113281 4.71875 -8.15625 Z M 10.40625 -8.15625 "/></g></g></g><g fill="#b2b2b2" fill-opacity="1"><g transform="translate(823.509056, 387.117625)"><g><path d="M 1.9375 0 L 1.9375 -13.46875 L 5.21875 -13.46875 L 5.21875 -11.46875 L 5.484375 -11.40625 C 5.804688 -12.15625 6.234375 -12.707031 6.765625 -13.0625 C 7.296875 -13.414062 7.9375 -13.59375 8.6875 -13.59375 C 9.457031 -13.59375 10.039062 -13.460938 10.4375 -13.203125 L 9.859375 -10.28125 L 9.609375 -10.234375 C 9.390625 -10.316406 9.175781 -10.378906 8.96875 -10.421875 C 8.769531 -10.460938 8.523438 -10.484375 8.234375 -10.484375 C 7.285156 -10.484375 6.5625 -10.148438 6.0625 -9.484375 C 5.570312 -8.828125 5.328125 -7.765625 5.328125 -6.296875 L 5.328125 0 Z M 1.9375 0 "/></g></g></g><g fill="#b2b2b2" fill-opacity="1"><g transform="translate(834.066493, 387.117625)"><g><path d="M 9.265625 0 L 5.234375 0 L 0.25 -13.46875 L 3.796875 -13.46875 L 7.140625 -3.875 L 7.421875 -3.875 L 10.78125 -13.46875 L 14.234375 -13.46875 Z M 9.265625 0 "/></g></g></g><g fill="#b2b2b2" fill-opacity="1"><g transform="translate(848.541768, 387.117625)"><g><path d="M 13.3125 -5.96875 L 4.65625 -5.96875 C 4.75 -4.800781 5.078125 -3.945312 5.640625 -3.40625 C 6.210938 -2.875 6.992188 -2.609375 7.984375 -2.609375 C 8.753906 -2.609375 9.378906 -2.753906 9.859375 -3.046875 C 10.335938 -3.335938 10.722656 -3.773438 11.015625 -4.359375 L 11.28125 -4.359375 L 13.53125 -2.921875 C 13.082031 -1.972656 12.414062 -1.207031 11.53125 -0.625 C 10.644531 -0.0390625 9.460938 0.25 7.984375 0.25 C 6.585938 0.25 5.382812 -0.0078125 4.375 -0.53125 C 3.363281 -1.0625 2.582031 -1.847656 2.03125 -2.890625 C 1.476562 -3.941406 1.203125 -5.21875 1.203125 -6.71875 C 1.203125 -8.25 1.488281 -9.539062 2.0625 -10.59375 C 2.644531 -11.644531 3.425781 -12.425781 4.40625 -12.9375 C 5.394531 -13.457031 6.503906 -13.71875 7.734375 -13.71875 C 9.640625 -13.71875 11.097656 -13.210938 12.109375 -12.203125 C 13.128906 -11.191406 13.640625 -9.710938 13.640625 -7.765625 C 13.640625 -7.054688 13.613281 -6.503906 13.5625 -6.109375 Z M 10.40625 -8.15625 C 10.375 -9.175781 10.132812 -9.921875 9.6875 -10.390625 C 9.238281 -10.859375 8.585938 -11.09375 7.734375 -11.09375 C 6.023438 -11.09375 5.019531 -10.113281 4.71875 -8.15625 Z M 10.40625 -8.15625 "/></g></g></g><g fill="#b2b2b2" fill-opacity="1"><g transform="translate(863.175716, 387.117625)"><g><path d="M 1.9375 0 L 1.9375 -13.46875 L 5.21875 -13.46875 L 5.21875 -11.46875 L 5.484375 -11.40625 C 5.804688 -12.15625 6.234375 -12.707031 6.765625 -13.0625 C 7.296875 -13.414062 7.9375 -13.59375 8.6875 -13.59375 C 9.457031 -13.59375 10.039062 -13.460938 10.4375 -13.203125 L 9.859375 -10.28125 L 9.609375 -10.234375 C 9.390625 -10.316406 9.175781 -10.378906 8.96875 -10.421875 C 8.769531 -10.460938 8.523438 -10.484375 8.234375 -10.484375 C 7.285156 -10.484375 6.5625 -10.148438 6.0625 -9.484375 C 5.570312 -8.828125 5.328125 -7.765625 5.328125 -6.296875 L 5.328125 0 Z M 1.9375 0 "/></g></g></g><path stroke-linecap="butt" transform="matrix(0, 0.75, -0.75, 0, 276.879048, 315.477631)" fill="none" stroke-linejoin="miter" d="M -0.00142451 2.00019 L 56.524622 2.00019 " stroke="#004aad" stroke-width="4" stroke-opacity="1" stroke-miterlimit="4"/><path stroke-linecap="round" transform="matrix(0, 0.75, -0.75, 0, 276.879048, 315.477631)" fill="none" stroke-linejoin="round" d="M 48.524621 -3.999811 L 56.524622 2.00019 L 48.524621 8.00019 " stroke="#004aad" stroke-width="4" stroke-opacity="1" stroke-miterlimit="4"/><g clip-path="url(#f215af95c1)"><g clip-path="url(#eb85cf4b6c)"><path fill="#004aad" d="M 248.074219 263.121094 L 301.191406 263.121094 L 301.191406 316.238281 L 248.074219 316.238281 Z M 248.074219 263.121094 " fill-opacity="1" fill-rule="nonzero"/></g></g><g fill="#b2b2b2" fill-opacity="1"><g transform="translate(260.143854, 293.869518)"><g><path d="M 6.875 -8.5625 L 6.875 -7.140625 L 4.390625 -7.140625 L 4.390625 0 L 2.703125 0 L 2.703125 -7.140625 L 0.234375 -7.140625 L 0.234375 -8.5625 Z M 6.875 -8.5625 "/></g></g><g transform="translate(267.245416, 293.869518)"><g><path d="M 2.8125 -3.765625 L 2.8125 -1.421875 L 6.890625 -1.421875 L 6.890625 0 L 1.109375 0 L 1.109375 -8.5625 L 6.796875 -8.5625 L 6.796875 -7.15625 L 2.8125 -7.15625 L 2.8125 -5.140625 L 6.296875 -5.140625 L 6.296875 -3.765625 Z M 2.8125 -3.765625 "/></g></g><g transform="translate(274.61065, 293.869518)"><g><path d="M 3.796875 0.125 C 3.203125 0.125 2.671875 0.0507812 2.203125 -0.09375 C 1.742188 -0.238281 1.359375 -0.429688 1.046875 -0.671875 C 0.742188 -0.910156 0.507812 -1.171875 0.34375 -1.453125 L 1.28125 -2.59375 L 1.421875 -2.59375 C 1.679688 -2.207031 2.007812 -1.898438 2.40625 -1.671875 C 2.800781 -1.453125 3.265625 -1.34375 3.796875 -1.34375 C 4.253906 -1.34375 4.597656 -1.4375 4.828125 -1.625 C 5.054688 -1.820312 5.171875 -2.085938 5.171875 -2.421875 C 5.171875 -2.617188 5.132812 -2.785156 5.0625 -2.921875 C 4.988281 -3.066406 4.863281 -3.1875 4.6875 -3.28125 C 4.519531 -3.375 4.285156 -3.457031 3.984375 -3.53125 L 2.890625 -3.78125 C 2.117188 -3.957031 1.546875 -4.25 1.171875 -4.65625 C 0.796875 -5.070312 0.609375 -5.601562 0.609375 -6.25 C 0.609375 -6.738281 0.726562 -7.164062 0.96875 -7.53125 C 1.207031 -7.894531 1.554688 -8.175781 2.015625 -8.375 C 2.484375 -8.582031 3.039062 -8.6875 3.6875 -8.6875 C 4.34375 -8.6875 4.90625 -8.597656 5.375 -8.421875 C 5.851562 -8.253906 6.253906 -7.988281 6.578125 -7.625 L 5.734375 -6.484375 L 5.59375 -6.484375 C 5.351562 -6.734375 5.078125 -6.921875 4.765625 -7.046875 C 4.453125 -7.179688 4.09375 -7.25 3.6875 -7.25 C 3.21875 -7.25 2.863281 -7.164062 2.625 -7 C 2.382812 -6.832031 2.265625 -6.601562 2.265625 -6.3125 C 2.265625 -6.039062 2.347656 -5.828125 2.515625 -5.671875 C 2.679688 -5.515625 2.976562 -5.390625 3.40625 -5.296875 L 4.53125 -5.0625 C 5.351562 -4.882812 5.953125 -4.585938 6.328125 -4.171875 C 6.703125 -3.753906 6.890625 -3.207031 6.890625 -2.53125 C 6.890625 -1.988281 6.773438 -1.519531 6.546875 -1.125 C 6.316406 -0.726562 5.96875 -0.421875 5.5 -0.203125 C 5.039062 0.015625 4.472656 0.125 3.796875 0.125 Z M 3.796875 0.125 "/></g></g><g transform="translate(281.970024, 293.869518)"><g><path d="M 6.875 -8.5625 L 6.875 -7.140625 L 4.390625 -7.140625 L 4.390625 0 L 2.703125 0 L 2.703125 -7.140625 L 0.234375 -7.140625 L 0.234375 -8.5625 Z M 6.875 -8.5625 "/></g></g></g><path stroke-linecap="butt" transform="matrix(0, -0.75, 0.75, 0, 375.879041, 404.007617)" fill="none" stroke-linejoin="miter" d="M -0.000260856 1.999821 L 56.525785 1.999821 " stroke="#004aad" stroke-width="4" stroke-opacity="1" stroke-miterlimit="4"/><path stroke-linecap="round" transform="matrix(0, -0.75, 0.75, 0, 375.879041, 404.007617)" fill="none" stroke-linejoin="round" d="M 48.525785 -4.00018 L 56.525785 1.999821 L 48.525785 7.999821 " stroke="#004aad" stroke-width="4" stroke-opacity="1" stroke-miterlimit="4"/><g clip-path="url(#a67aca5beb)"><g clip-path="url(#9adc082f27)"><path fill="#004aad" d="M 350.824219 404.011719 L 403.941406 404.011719 L 403.941406 457.128906 L 350.824219 457.128906 Z M 350.824219 404.011719 " fill-opacity="1" fill-rule="nonzero"/></g></g><g fill="#b2b2b2" fill-opacity="1"><g transform="translate(362.893846, 434.760926)"><g><path d="M 6.875 -8.5625 L 6.875 -7.140625 L 4.390625 -7.140625 L 4.390625 0 L 2.703125 0 L 2.703125 -7.140625 L 0.234375 -7.140625 L 0.234375 -8.5625 Z M 6.875 -8.5625 "/></g></g><g transform="translate(369.995408, 434.760926)"><g><path d="M 2.8125 -3.765625 L 2.8125 -1.421875 L 6.890625 -1.421875 L 6.890625 0 L 1.109375 0 L 1.109375 -8.5625 L 6.796875 -8.5625 L 6.796875 -7.15625 L 2.8125 -7.15625 L 2.8125 -5.140625 L 6.296875 -5.140625 L 6.296875 -3.765625 Z M 2.8125 -3.765625 "/></g></g><g transform="translate(377.360642, 434.760926)"><g><path d="M 3.796875 0.125 C 3.203125 0.125 2.671875 0.0507812 2.203125 -0.09375 C 1.742188 -0.238281 1.359375 -0.429688 1.046875 -0.671875 C 0.742188 -0.910156 0.507812 -1.171875 0.34375 -1.453125 L 1.28125 -2.59375 L 1.421875 -2.59375 C 1.679688 -2.207031 2.007812 -1.898438 2.40625 -1.671875 C 2.800781 -1.453125 3.265625 -1.34375 3.796875 -1.34375 C 4.253906 -1.34375 4.597656 -1.4375 4.828125 -1.625 C 5.054688 -1.820312 5.171875 -2.085938 5.171875 -2.421875 C 5.171875 -2.617188 5.132812 -2.785156 5.0625 -2.921875 C 4.988281 -3.066406 4.863281 -3.1875 4.6875 -3.28125 C 4.519531 -3.375 4.285156 -3.457031 3.984375 -3.53125 L 2.890625 -3.78125 C 2.117188 -3.957031 1.546875 -4.25 1.171875 -4.65625 C 0.796875 -5.070312 0.609375 -5.601562 0.609375 -6.25 C 0.609375 -6.738281 0.726562 -7.164062 0.96875 -7.53125 C 1.207031 -7.894531 1.554688 -8.175781 2.015625 -8.375 C 2.484375 -8.582031 3.039062 -8.6875 3.6875 -8.6875 C 4.34375 -8.6875 4.90625 -8.597656 5.375 -8.421875 C 5.851562 -8.253906 6.253906 -7.988281 6.578125 -7.625 L 5.734375 -6.484375 L 5.59375 -6.484375 C 5.351562 -6.734375 5.078125 -6.921875 4.765625 -7.046875 C 4.453125 -7.179688 4.09375 -7.25 3.6875 -7.25 C 3.21875 -7.25 2.863281 -7.164062 2.625 -7 C 2.382812 -6.832031 2.265625 -6.601562 2.265625 -6.3125 C 2.265625 -6.039062 2.347656 -5.828125 2.515625 -5.671875 C 2.679688 -5.515625 2.976562 -5.390625 3.40625 -5.296875 L 4.53125 -5.0625 C 5.351562 -4.882812 5.953125 -4.585938 6.328125 -4.171875 C 6.703125 -3.753906 6.890625 -3.207031 6.890625 -2.53125 C 6.890625 -1.988281 6.773438 -1.519531 6.546875 -1.125 C 6.316406 -0.726562 5.96875 -0.421875 5.5 -0.203125 C 5.039062 0.015625 4.472656 0.125 3.796875 0.125 Z M 3.796875 0.125 "/></g></g><g transform="translate(384.720017, 434.760926)"><g><path d="M 6.875 -8.5625 L 6.875 -7.140625 L 4.390625 -7.140625 L 4.390625 0 L 2.703125 0 L 2.703125 -7.140625 L 0.234375 -7.140625 L 0.234375 -8.5625 Z M 6.875 -8.5625 "/></g></g></g><path stroke-linecap="butt" transform="matrix(0, 0.75, -0.75, 0, 482.246692, 315.490435)" fill="none" stroke-linejoin="miter" d="M 0.00233683 2.000798 L 56.523175 2.000798 " stroke="#004aad" stroke-width="4" stroke-opacity="1" stroke-miterlimit="4"/><path stroke-linecap="round" transform="matrix(0, 0.75, -0.75, 0, 482.246692, 315.490435)" fill="none" stroke-linejoin="round" d="M 48.523174 -3.999203 L 56.523175 2.000798 L 48.523174 8.000798 " stroke="#004aad" stroke-width="4" stroke-opacity="1" stroke-miterlimit="4"/><g clip-path="url(#efa7e0debd)"><g clip-path="url(#8d3ce65db9)"><path fill="#004aad" d="M 453.441406 263.132812 L 506.558594 263.132812 L 506.558594 316.25 L 453.441406 316.25 Z M 453.441406 263.132812 " fill-opacity="1" fill-rule="nonzero"/></g></g><g fill="#b2b2b2" fill-opacity="1"><g transform="translate(465.511486, 293.882322)"><g><path d="M 6.875 -8.5625 L 6.875 -7.140625 L 4.390625 -7.140625 L 4.390625 0 L 2.703125 0 L 2.703125 -7.140625 L 0.234375 -7.140625 L 0.234375 -8.5625 Z M 6.875 -8.5625 "/></g></g><g transform="translate(472.613048, 293.882322)"><g><path d="M 2.8125 -3.765625 L 2.8125 -1.421875 L 6.890625 -1.421875 L 6.890625 0 L 1.109375 0 L 1.109375 -8.5625 L 6.796875 -8.5625 L 6.796875 -7.15625 L 2.8125 -7.15625 L 2.8125 -5.140625 L 6.296875 -5.140625 L 6.296875 -3.765625 Z M 2.8125 -3.765625 "/></g></g><g transform="translate(479.978281, 293.882322)"><g><path d="M 3.796875 0.125 C 3.203125 0.125 2.671875 0.0507812 2.203125 -0.09375 C 1.742188 -0.238281 1.359375 -0.429688 1.046875 -0.671875 C 0.742188 -0.910156 0.507812 -1.171875 0.34375 -1.453125 L 1.28125 -2.59375 L 1.421875 -2.59375 C 1.679688 -2.207031 2.007812 -1.898438 2.40625 -1.671875 C 2.800781 -1.453125 3.265625 -1.34375 3.796875 -1.34375 C 4.253906 -1.34375 4.597656 -1.4375 4.828125 -1.625 C 5.054688 -1.820312 5.171875 -2.085938 5.171875 -2.421875 C 5.171875 -2.617188 5.132812 -2.785156 5.0625 -2.921875 C 4.988281 -3.066406 4.863281 -3.1875 4.6875 -3.28125 C 4.519531 -3.375 4.285156 -3.457031 3.984375 -3.53125 L 2.890625 -3.78125 C 2.117188 -3.957031 1.546875 -4.25 1.171875 -4.65625 C 0.796875 -5.070312 0.609375 -5.601562 0.609375 -6.25 C 0.609375 -6.738281 0.726562 -7.164062 0.96875 -7.53125 C 1.207031 -7.894531 1.554688 -8.175781 2.015625 -8.375 C 2.484375 -8.582031 3.039062 -8.6875 3.6875 -8.6875 C 4.34375 -8.6875 4.90625 -8.597656 5.375 -8.421875 C 5.851562 -8.253906 6.253906 -7.988281 6.578125 -7.625 L 5.734375 -6.484375 L 5.59375 -6.484375 C 5.351562 -6.734375 5.078125 -6.921875 4.765625 -7.046875 C 4.453125 -7.179688 4.09375 -7.25 3.6875 -7.25 C 3.21875 -7.25 2.863281 -7.164062 2.625 -7 C 2.382812 -6.832031 2.265625 -6.601562 2.265625 -6.3125 C 2.265625 -6.039062 2.347656 -5.828125 2.515625 -5.671875 C 2.679688 -5.515625 2.976562 -5.390625 3.40625 -5.296875 L 4.53125 -5.0625 C 5.351562 -4.882812 5.953125 -4.585938 6.328125 -4.171875 C 6.703125 -3.753906 6.890625 -3.207031 6.890625 -2.53125 C 6.890625 -1.988281 6.773438 -1.519531 6.546875 -1.125 C 6.316406 -0.726562 5.96875 -0.421875 5.5 -0.203125 C 5.039062 0.015625 4.472656 0.125 3.796875 0.125 Z M 3.796875 0.125 "/></g></g><g transform="translate(487.337656, 293.882322)"><g><path d="M 6.875 -8.5625 L 6.875 -7.140625 L 4.390625 -7.140625 L 4.390625 0 L 2.703125 0 L 2.703125 -7.140625 L 0.234375 -7.140625 L 0.234375 -8.5625 Z M 6.875 -8.5625 "/></g></g></g><path stroke-linecap="butt" transform="matrix(0, 0.75, -0.75, 0, 687.614316, 315.490435)" fill="none" stroke-linejoin="miter" d="M 0.00233683 2.00138 L 56.523175 2.00138 " stroke="#004aad" stroke-width="4" stroke-opacity="1" stroke-miterlimit="4"/><path stroke-linecap="round" transform="matrix(0, 0.75, -0.75, 0, 687.614316, 315.490435)" fill="none" stroke-linejoin="round" d="M 48.523174 -3.998621 L 56.523175 2.00138 L 48.523174 8.00138 " stroke="#004aad" stroke-width="4" stroke-opacity="1" stroke-miterlimit="4"/><g clip-path="url(#b1f44d8aad)"><g clip-path="url(#3031077af5)"><path fill="#004aad" d="M 658.808594 263.132812 L 711.925781 263.132812 L 711.925781 316.25 L 658.808594 316.25 Z M 658.808594 263.132812 " fill-opacity="1" fill-rule="nonzero"/></g></g><g fill="#b2b2b2" fill-opacity="1"><g transform="translate(670.879062, 293.882322)"><g><path d="M 6.875 -8.5625 L 6.875 -7.140625 L 4.390625 -7.140625 L 4.390625 0 L 2.703125 0 L 2.703125 -7.140625 L 0.234375 -7.140625 L 0.234375 -8.5625 Z M 6.875 -8.5625 "/></g></g><g transform="translate(677.980624, 293.882322)"><g><path d="M 2.8125 -3.765625 L 2.8125 -1.421875 L 6.890625 -1.421875 L 6.890625 0 L 1.109375 0 L 1.109375 -8.5625 L 6.796875 -8.5625 L 6.796875 -7.15625 L 2.8125 -7.15625 L 2.8125 -5.140625 L 6.296875 -5.140625 L 6.296875 -3.765625 Z M 2.8125 -3.765625 "/></g></g><g transform="translate(685.345858, 293.882322)"><g><path d="M 3.796875 0.125 C 3.203125 0.125 2.671875 0.0507812 2.203125 -0.09375 C 1.742188 -0.238281 1.359375 -0.429688 1.046875 -0.671875 C 0.742188 -0.910156 0.507812 -1.171875 0.34375 -1.453125 L 1.28125 -2.59375 L 1.421875 -2.59375 C 1.679688 -2.207031 2.007812 -1.898438 2.40625 -1.671875 C 2.800781 -1.453125 3.265625 -1.34375 3.796875 -1.34375 C 4.253906 -1.34375 4.597656 -1.4375 4.828125 -1.625 C 5.054688 -1.820312 5.171875 -2.085938 5.171875 -2.421875 C 5.171875 -2.617188 5.132812 -2.785156 5.0625 -2.921875 C 4.988281 -3.066406 4.863281 -3.1875 4.6875 -3.28125 C 4.519531 -3.375 4.285156 -3.457031 3.984375 -3.53125 L 2.890625 -3.78125 C 2.117188 -3.957031 1.546875 -4.25 1.171875 -4.65625 C 0.796875 -5.070312 0.609375 -5.601562 0.609375 -6.25 C 0.609375 -6.738281 0.726562 -7.164062 0.96875 -7.53125 C 1.207031 -7.894531 1.554688 -8.175781 2.015625 -8.375 C 2.484375 -8.582031 3.039062 -8.6875 3.6875 -8.6875 C 4.34375 -8.6875 4.90625 -8.597656 5.375 -8.421875 C 5.851562 -8.253906 6.253906 -7.988281 6.578125 -7.625 L 5.734375 -6.484375 L 5.59375 -6.484375 C 5.351562 -6.734375 5.078125 -6.921875 4.765625 -7.046875 C 4.453125 -7.179688 4.09375 -7.25 3.6875 -7.25 C 3.21875 -7.25 2.863281 -7.164062 2.625 -7 C 2.382812 -6.832031 2.265625 -6.601562 2.265625 -6.3125 C 2.265625 -6.039062 2.347656 -5.828125 2.515625 -5.671875 C 2.679688 -5.515625 2.976562 -5.390625 3.40625 -5.296875 L 4.53125 -5.0625 C 5.351562 -4.882812 5.953125 -4.585938 6.328125 -4.171875 C 6.703125 -3.753906 6.890625 -3.207031 6.890625 -2.53125 C 6.890625 -1.988281 6.773438 -1.519531 6.546875 -1.125 C 6.316406 -0.726562 5.96875 -0.421875 5.5 -0.203125 C 5.039062 0.015625 4.472656 0.125 3.796875 0.125 Z M 3.796875 0.125 "/></g></g><g transform="translate(692.705232, 293.882322)"><g><path d="M 6.875 -8.5625 L 6.875 -7.140625 L 4.390625 -7.140625 L 4.390625 0 L 2.703125 0 L 2.703125 -7.140625 L 0.234375 -7.140625 L 0.234375 -8.5625 Z M 6.875 -8.5625 "/></g></g></g><path stroke-linecap="butt" transform="matrix(0, -0.75, 0.75, 0, 581.246684, 404.007617)" fill="none" stroke-linejoin="miter" d="M -0.000260856 1.999213 L 56.525785 1.999213 " stroke="#004aad" stroke-width="4" stroke-opacity="1" stroke-miterlimit="4"/><path stroke-linecap="round" transform="matrix(0, -0.75, 0.75, 0, 581.246684, 404.007617)" fill="none" stroke-linejoin="round" d="M 48.525785 -4.000788 L 56.525785 1.999213 L 48.525785 7.999213 " stroke="#004aad" stroke-width="4" stroke-opacity="1" stroke-miterlimit="4"/><g clip-path="url(#6b55fb3cf7)"><g clip-path="url(#eef584d160)"><path fill="#004aad" d="M 556.191406 404.011719 L 609.308594 404.011719 L 609.308594 457.128906 L 556.191406 457.128906 Z M 556.191406 404.011719 " fill-opacity="1" fill-rule="nonzero"/></g></g><g fill="#b2b2b2" fill-opacity="1"><g transform="translate(568.261502, 434.760926)"><g><path d="M 6.875 -8.5625 L 6.875 -7.140625 L 4.390625 -7.140625 L 4.390625 0 L 2.703125 0 L 2.703125 -7.140625 L 0.234375 -7.140625 L 0.234375 -8.5625 Z M 6.875 -8.5625 "/></g></g><g transform="translate(575.363064, 434.760926)"><g><path d="M 2.8125 -3.765625 L 2.8125 -1.421875 L 6.890625 -1.421875 L 6.890625 0 L 1.109375 0 L 1.109375 -8.5625 L 6.796875 -8.5625 L 6.796875 -7.15625 L 2.8125 -7.15625 L 2.8125 -5.140625 L 6.296875 -5.140625 L 6.296875 -3.765625 Z M 2.8125 -3.765625 "/></g></g><g transform="translate(582.728298, 434.760926)"><g><path d="M 3.796875 0.125 C 3.203125 0.125 2.671875 0.0507812 2.203125 -0.09375 C 1.742188 -0.238281 1.359375 -0.429688 1.046875 -0.671875 C 0.742188 -0.910156 0.507812 -1.171875 0.34375 -1.453125 L 1.28125 -2.59375 L 1.421875 -2.59375 C 1.679688 -2.207031 2.007812 -1.898438 2.40625 -1.671875 C 2.800781 -1.453125 3.265625 -1.34375 3.796875 -1.34375 C 4.253906 -1.34375 4.597656 -1.4375 4.828125 -1.625 C 5.054688 -1.820312 5.171875 -2.085938 5.171875 -2.421875 C 5.171875 -2.617188 5.132812 -2.785156 5.0625 -2.921875 C 4.988281 -3.066406 4.863281 -3.1875 4.6875 -3.28125 C 4.519531 -3.375 4.285156 -3.457031 3.984375 -3.53125 L 2.890625 -3.78125 C 2.117188 -3.957031 1.546875 -4.25 1.171875 -4.65625 C 0.796875 -5.070312 0.609375 -5.601562 0.609375 -6.25 C 0.609375 -6.738281 0.726562 -7.164062 0.96875 -7.53125 C 1.207031 -7.894531 1.554688 -8.175781 2.015625 -8.375 C 2.484375 -8.582031 3.039062 -8.6875 3.6875 -8.6875 C 4.34375 -8.6875 4.90625 -8.597656 5.375 -8.421875 C 5.851562 -8.253906 6.253906 -7.988281 6.578125 -7.625 L 5.734375 -6.484375 L 5.59375 -6.484375 C 5.351562 -6.734375 5.078125 -6.921875 4.765625 -7.046875 C 4.453125 -7.179688 4.09375 -7.25 3.6875 -7.25 C 3.21875 -7.25 2.863281 -7.164062 2.625 -7 C 2.382812 -6.832031 2.265625 -6.601562 2.265625 -6.3125 C 2.265625 -6.039062 2.347656 -5.828125 2.515625 -5.671875 C 2.679688 -5.515625 2.976562 -5.390625 3.40625 -5.296875 L 4.53125 -5.0625 C 5.351562 -4.882812 5.953125 -4.585938 6.328125 -4.171875 C 6.703125 -3.753906 6.890625 -3.207031 6.890625 -2.53125 C 6.890625 -1.988281 6.773438 -1.519531 6.546875 -1.125 C 6.316406 -0.726562 5.96875 -0.421875 5.5 -0.203125 C 5.039062 0.015625 4.472656 0.125 3.796875 0.125 Z M 3.796875 0.125 "/></g></g><g transform="translate(590.087672, 434.760926)"><g><path d="M 6.875 -8.5625 L 6.875 -7.140625 L 4.390625 -7.140625 L 4.390625 0 L 2.703125 0 L 2.703125 -7.140625 L 0.234375 -7.140625 L 0.234375 -8.5625 Z M 6.875 -8.5625 "/></g></g></g><path stroke-linecap="butt" transform="matrix(0.75, 0, 0, 0.75, 0.000017, 103.869498)" fill="none" stroke-linejoin="miter" d="M 342.677087 46.309422 L 399.036466 46.309422 C 404.286467 46.309422 408.156259 49.147964 410.635426 54.830256 C 410.781259 55.549006 410.854176 56.142756 410.854176 56.621923 L 410.854176 60.486507 C 410.854176 64.496924 408.322925 67.934424 403.260425 70.799008 C 401.255217 71.470883 399.635425 71.804216 398.390633 71.804216 L 332.937503 71.804216 L 332.937503 84.694842 L 371.895839 84.694842 C 387.697924 84.694842 399.46355 89.684426 407.197925 99.658385 C 409.635426 103.429218 410.854176 106.606302 410.854176 109.184427 L 410.854176 124.507345 C 410.854176 130.476096 406.843759 136.351096 398.822925 142.127138 C 391.135424 146.710472 383.593757 149.002139 376.192715 149.002139 L 318.260419 149.002139 C 314.343752 149.002139 310.932293 146.77818 308.015626 142.34068 C 307.348959 140.908388 307.015626 139.616721 307.015626 138.470888 L 307.015626 135.679221 C 307.015626 130.476096 310.072918 126.632345 316.182293 124.153178 C 317.56771 123.720887 319.140627 123.507345 320.906252 123.507345 L 385.14584 123.507345 L 385.14584 110.616719 L 343.968754 110.616719 C 332.51042 110.616719 322.651044 107.033385 314.390627 99.877135 C 309.47396 94.955259 307.015626 89.970884 307.015626 84.908384 L 307.015626 71.944841 C 307.015626 63.543799 312.791668 56.335465 324.343752 50.319839 C 331.078128 47.647964 337.187503 46.309422 342.677087 46.309422 Z M 430.041677 46.309422 L 510.171892 46.309422 C 514.567725 46.309422 518.192726 48.861506 521.057309 53.970881 C 521.583351 55.549006 521.848976 56.762548 521.848976 57.621923 L 521.848976 60.486507 C 521.848976 64.595882 519.270851 68.033382 514.1146 70.799008 C 512.442725 71.470883 510.8646 71.804216 509.385433 71.804216 L 443.791678 71.804216 L 443.791678 84.908384 L 494.489599 84.908384 C 500.937516 84.908384 505.281266 87.460467 507.526058 92.569843 C 508.192725 94.049009 508.526058 95.408384 508.526058 96.653176 L 508.526058 98.444843 C 508.526058 103.647968 505.473975 107.491719 499.359391 109.970886 C 498.359391 110.257344 497.401057 110.403177 496.494807 110.403177 L 443.791678 110.403177 L 443.791678 123.507345 L 507.953141 123.507345 C 515.494809 123.507345 520.130226 127.158387 521.848976 134.460471 L 521.848976 137.897971 C 521.848976 141.861513 519.390642 145.226097 514.468767 147.99693 C 513.088559 148.663597 511.796892 149.002139 510.604183 149.002139 L 429.46876 149.002139 C 425.12501 149.002139 421.567718 146.37193 418.796885 141.12193 C 418.270843 139.736513 418.010426 138.522971 418.010426 137.470888 L 418.010426 58.267757 C 418.010426 53.064631 421.067718 49.220881 427.177094 46.736506 C 428.229177 46.450047 429.182302 46.309422 430.041677 46.309422 Z M 541.036477 46.309422 L 602.192732 46.309422 C 610.927108 46.309422 618.973983 50.413589 626.322942 58.627132 C 630.666693 64.88234 632.843776 70.752133 632.843776 76.241716 L 632.843776 80.465675 C 632.843776 88.825051 628.687526 96.653176 620.380233 103.95526 C 615.322941 107.20526 611.286483 109.090677 608.281274 109.611511 L 608.281274 109.757344 C 618.875025 119.163595 625.848984 125.700053 629.187526 129.377137 C 630.671901 131.861512 631.411484 134.226096 631.411484 136.465679 C 631.411484 141.861513 628.401067 145.897972 622.385442 148.569847 C 621.192734 148.856305 620.307317 149.002139 619.7344 149.002139 L 616.869817 149.002139 C 613.531275 149.002139 609.114608 146.038597 603.625024 140.12193 C 601.713565 138.543804 590.875023 128.637554 571.114605 110.403177 L 554.786478 110.403177 L 554.786478 136.684429 C 554.786478 142.267763 551.56252 146.304222 545.119811 148.783389 C 544.401061 148.929222 543.807311 149.002139 543.328144 149.002139 L 540.463561 149.002139 C 536.11981 149.002139 532.562518 146.37193 529.791685 141.12193 C 529.265643 139.736513 529.005226 138.522971 529.005226 137.470888 L 529.005226 58.267757 C 529.005226 53.064631 532.062518 49.220881 538.171894 46.736506 C 539.223977 46.450047 540.177102 46.309422 541.036477 46.309422 Z M 554.786478 71.804216 L 554.786478 85.121925 L 607.062524 85.121925 L 607.062524 71.804216 Z M 651.385444 46.309422 L 653.390653 46.309422 C 658.786486 46.309422 663.130237 50.606298 666.421904 59.200048 C 666.614612 59.246923 675.067738 76.07505 691.776072 109.684427 C 692.015656 109.444844 701.921906 89.991717 721.494825 51.319839 C 724.213575 47.981298 727.177117 46.309422 730.375034 46.309422 L 732.44795 46.309422 C 736.651076 46.309422 740.088576 48.674006 742.760451 53.397965 C 743.479201 54.736506 743.838576 56.002131 743.838576 57.19484 L 743.838576 60.200048 C 743.838576 61.585465 739.895868 69.799008 732.020867 84.835467 C 712.541699 123.694845 702.44274 143.606305 701.729198 144.55943 C 699.00524 147.517764 696.166698 149.002139 693.208364 149.002139 L 690.984406 149.002139 C 685.546905 149.002139 681.34378 145.111513 678.385446 137.325054 C 653.078153 87.627134 640.42711 62.397965 640.42711 61.63234 C 640.140652 61.111507 640.000027 60.366715 640.000027 59.41359 L 640.000027 57.840673 C 640.000027 52.491715 643.244819 48.720881 649.739611 46.522964 C 650.265652 46.382339 650.812528 46.309422 651.385444 46.309422 Z M 763.026078 46.309422 L 843.156292 46.309422 C 847.552126 46.309422 851.177126 48.861506 854.04171 53.970881 C 854.567752 55.549006 854.833377 56.762548 854.833377 57.621923 L 854.833377 60.486507 C 854.833377 64.595882 852.255251 68.033382 847.099001 70.799008 C 845.427126 71.470883 843.849001 71.804216 842.369834 71.804216 L 776.776079 71.804216 L 776.776079 84.908384 L 827.473999 84.908384 C 833.921917 84.908384 838.265667 87.460467 840.510459 92.569843 C 841.177126 94.049009 841.510459 95.408384 841.510459 96.653176 L 841.510459 98.444843 C 841.510459 103.647968 838.458375 107.491719 832.343791 109.970886 C 831.343791 110.257344 830.385458 110.403177 829.479208 110.403177 L 776.776079 110.403177 L 776.776079 123.507345 L 840.937542 123.507345 C 848.479209 123.507345 853.114626 127.158387 854.833377 134.460471 L 854.833377 137.897971 C 854.833377 141.861513 852.369835 145.226097 847.453168 147.99693 C 846.072959 148.663597 844.781292 149.002139 843.588584 149.002139 L 762.453161 149.002139 C 758.109411 149.002139 754.552119 146.37193 751.781285 141.12193 C 751.255244 139.736513 750.994827 138.522971 750.994827 137.470888 L 750.994827 58.267757 C 750.994827 53.064631 754.052119 49.220881 760.161494 46.736506 C 761.213578 46.450047 762.166703 46.309422 763.026078 46.309422 Z M 874.020878 46.309422 L 935.177133 46.309422 C 943.911508 46.309422 951.958384 50.413589 959.307343 58.627132 C 963.651093 64.88234 965.828177 70.752133 965.828177 76.241716 L 965.828177 80.465675 C 965.828177 88.825051 961.671926 96.653176 953.364634 103.95526 C 948.307342 107.20526 944.270883 109.090677 941.260467 109.611511 L 941.260467 109.757344 C 951.859426 119.163595 958.833385 125.700053 962.171927 129.377137 C 963.651093 131.861512 964.395885 134.226096 964.395885 136.465679 C 964.395885 141.861513 961.385468 145.897972 955.369843 148.569847 C 954.177134 148.856305 953.291717 149.002139 952.718801 149.002139 L 949.854217 149.002139 C 946.515675 149.002139 942.099008 146.038597 936.609425 140.12193 C 934.697966 138.543804 923.859424 128.637554 904.099005 110.403177 L 887.770879 110.403177 L 887.770879 136.684429 C 887.770879 142.267763 884.546921 146.304222 878.104212 148.783389 C 877.385462 148.929222 876.786503 149.002139 876.312545 149.002139 L 873.447961 149.002139 C 869.104211 149.002139 865.546919 146.37193 862.776086 141.12193 C 862.250044 139.736513 861.989627 138.522971 861.989627 137.470888 L 861.989627 58.267757 C 861.989627 53.064631 865.046919 49.220881 871.156294 46.736506 C 872.208378 46.450047 873.161503 46.309422 874.020878 46.309422 Z M 887.770879 71.804216 L 887.770879 85.121925 L 940.046925 85.121925 L 940.046925 71.804216 Z M 887.770879 71.804216 " stroke="#000000" stroke-width="5.500012" stroke-opacity="1" stroke-miterlimit="4"/><g fill="#004aad" fill-opacity="1"><g transform="translate(230.261722, 215.61949)"><g><path d="M 26.75 -77.015625 L 69.015625 -77.015625 C 72.953125 -77.015625 75.851562 -74.882812 77.71875 -70.625 C 77.820312 -70.09375 77.875 -69.644531 77.875 -69.28125 L 77.875 -66.390625 C 77.875 -63.378906 75.976562 -60.800781 72.1875 -58.65625 C 70.6875 -58.15625 69.46875 -57.90625 68.53125 -57.90625 L 19.4375 -57.90625 L 19.4375 -48.234375 L 48.65625 -48.234375 C 60.507812 -48.234375 69.335938 -44.488281 75.140625 -37 C 76.960938 -34.175781 77.875 -31.796875 77.875 -29.859375 L 77.875 -18.375 C 77.875 -13.894531 74.867188 -9.488281 68.859375 -5.15625 C 63.085938 -1.71875 57.429688 0 51.890625 0 L 8.4375 0 C 5.5 0 2.9375 -1.664062 0.75 -5 C 0.25 -6.070312 0 -7.035156 0 -7.890625 L 0 -9.984375 C 0 -13.890625 2.289062 -16.773438 6.875 -18.640625 C 7.914062 -18.960938 9.097656 -19.125 10.421875 -19.125 L 58.59375 -19.125 L 58.59375 -28.796875 L 27.71875 -28.796875 C 19.125 -28.796875 11.726562 -31.476562 5.53125 -36.84375 C 1.84375 -40.53125 0 -44.273438 0 -48.078125 L 0 -57.796875 C 0 -64.097656 4.332031 -69.503906 13 -74.015625 C 18.050781 -76.015625 22.632812 -77.015625 26.75 -77.015625 Z M 26.75 -77.015625 "/></g></g></g><g fill="#004aad" fill-opacity="1"><g transform="translate(313.507755, 215.61949)"><g><path d="M 9.03125 -77.015625 L 69.125 -77.015625 C 72.414062 -77.015625 75.140625 -75.101562 77.296875 -71.28125 C 77.679688 -70.09375 77.875 -69.175781 77.875 -68.53125 L 77.875 -66.390625 C 77.875 -63.304688 75.941406 -60.726562 72.078125 -58.65625 C 70.828125 -58.15625 69.644531 -57.90625 68.53125 -57.90625 L 19.34375 -57.90625 L 19.34375 -48.078125 L 57.359375 -48.078125 C 62.191406 -48.078125 65.453125 -46.160156 67.140625 -42.328125 C 67.640625 -41.210938 67.890625 -40.191406 67.890625 -39.265625 L 67.890625 -37.921875 C 67.890625 -34.015625 65.597656 -31.128906 61.015625 -29.265625 C 60.265625 -29.054688 59.550781 -28.953125 58.875 -28.953125 L 19.34375 -28.953125 L 19.34375 -19.125 L 67.46875 -19.125 C 73.125 -19.125 76.59375 -16.382812 77.875 -10.90625 L 77.875 -8.328125 C 77.875 -5.359375 76.03125 -2.832031 72.34375 -0.75 C 71.3125 -0.25 70.347656 0 69.453125 0 L 8.59375 0 C 5.332031 0 2.664062 -1.96875 0.59375 -5.90625 C 0.195312 -6.945312 0 -7.859375 0 -8.640625 L 0 -68.046875 C 0 -71.953125 2.289062 -74.835938 6.875 -76.703125 C 7.664062 -76.910156 8.382812 -77.015625 9.03125 -77.015625 Z M 9.03125 -77.015625 "/></g></g></g><g fill="#004aad" fill-opacity="1"><g transform="translate(396.753789, 215.61949)"><g><path d="M 9.03125 -77.015625 L 54.890625 -77.015625 C 61.441406 -77.015625 67.476562 -73.9375 73 -67.78125 C 76.25 -63.09375 77.875 -58.691406 77.875 -54.578125 L 77.875 -51.40625 C 77.875 -45.132812 74.757812 -39.257812 68.53125 -33.78125 C 64.738281 -31.34375 61.710938 -29.929688 59.453125 -29.546875 L 59.453125 -29.4375 C 67.398438 -22.382812 72.628906 -17.476562 75.140625 -14.71875 C 76.253906 -12.851562 76.8125 -11.082031 76.8125 -9.40625 C 76.8125 -5.351562 74.554688 -2.328125 70.046875 -0.328125 C 69.148438 -0.109375 68.484375 0 68.046875 0 L 65.90625 0 C 63.394531 0 60.082031 -2.21875 55.96875 -6.65625 C 54.53125 -7.84375 46.398438 -15.273438 31.578125 -28.953125 L 19.34375 -28.953125 L 19.34375 -9.234375 C 19.34375 -5.046875 16.921875 -2.019531 12.078125 -0.15625 C 11.546875 -0.0507812 11.101562 0 10.75 0 L 8.59375 0 C 5.332031 0 2.664062 -1.96875 0.59375 -5.90625 C 0.195312 -6.945312 0 -7.859375 0 -8.640625 L 0 -68.046875 C 0 -71.953125 2.289062 -74.835938 6.875 -76.703125 C 7.664062 -76.910156 8.382812 -77.015625 9.03125 -77.015625 Z M 19.34375 -57.90625 L 19.34375 -47.90625 L 58.546875 -47.90625 L 58.546875 -57.90625 Z M 19.34375 -57.90625 "/></g></g></g><g fill="#004aad" fill-opacity="1"><g transform="translate(479.999823, 215.61949)"><g><path d="M 8.546875 -77.015625 L 10.046875 -77.015625 C 14.085938 -77.015625 17.34375 -73.796875 19.8125 -67.359375 C 19.957031 -67.316406 26.296875 -54.691406 38.828125 -29.484375 C 39.015625 -29.660156 46.445312 -44.253906 61.125 -73.265625 C 63.164062 -75.765625 65.382812 -77.015625 67.78125 -77.015625 L 69.34375 -77.015625 C 72.488281 -77.015625 75.066406 -75.242188 77.078125 -71.703125 C 77.609375 -70.703125 77.875 -69.753906 77.875 -68.859375 L 77.875 -66.609375 C 77.875 -65.566406 74.921875 -59.40625 69.015625 -48.125 C 54.410156 -18.976562 46.835938 -4.046875 46.296875 -3.328125 C 44.253906 -1.109375 42.125 0 39.90625 0 L 38.25 0 C 34.164062 0 31.015625 -2.914062 28.796875 -8.75 C 9.816406 -46.03125 0.328125 -64.957031 0.328125 -65.53125 C 0.109375 -65.925781 0 -66.476562 0 -67.1875 L 0 -68.375 C 0 -72.382812 2.4375 -75.210938 7.3125 -76.859375 C 7.695312 -76.960938 8.109375 -77.015625 8.546875 -77.015625 Z M 8.546875 -77.015625 "/></g></g></g><g fill="#004aad" fill-opacity="1"><g transform="translate(563.245856, 215.61949)"><g><path d="M 9.03125 -77.015625 L 69.125 -77.015625 C 72.414062 -77.015625 75.140625 -75.101562 77.296875 -71.28125 C 77.679688 -70.09375 77.875 -69.175781 77.875 -68.53125 L 77.875 -66.390625 C 77.875 -63.304688 75.941406 -60.726562 72.078125 -58.65625 C 70.828125 -58.15625 69.644531 -57.90625 68.53125 -57.90625 L 19.34375 -57.90625 L 19.34375 -48.078125 L 57.359375 -48.078125 C 62.191406 -48.078125 65.453125 -46.160156 67.140625 -42.328125 C 67.640625 -41.210938 67.890625 -40.191406 67.890625 -39.265625 L 67.890625 -37.921875 C 67.890625 -34.015625 65.597656 -31.128906 61.015625 -29.265625 C 60.265625 -29.054688 59.550781 -28.953125 58.875 -28.953125 L 19.34375 -28.953125 L 19.34375 -19.125 L 67.46875 -19.125 C 73.125 -19.125 76.59375 -16.382812 77.875 -10.90625 L 77.875 -8.328125 C 77.875 -5.359375 76.03125 -2.832031 72.34375 -0.75 C 71.3125 -0.25 70.347656 0 69.453125 0 L 8.59375 0 C 5.332031 0 2.664062 -1.96875 0.59375 -5.90625 C 0.195312 -6.945312 0 -7.859375 0 -8.640625 L 0 -68.046875 C 0 -71.953125 2.289062 -74.835938 6.875 -76.703125 C 7.664062 -76.910156 8.382812 -77.015625 9.03125 -77.015625 Z M 9.03125 -77.015625 "/></g></g></g><g fill="#004aad" fill-opacity="1"><g transform="translate(646.491913, 215.61949)"><g><path d="M 9.03125 -77.015625 L 54.890625 -77.015625 C 61.441406 -77.015625 67.476562 -73.9375 73 -67.78125 C 76.25 -63.09375 77.875 -58.691406 77.875 -54.578125 L 77.875 -51.40625 C 77.875 -45.132812 74.757812 -39.257812 68.53125 -33.78125 C 64.738281 -31.34375 61.710938 -29.929688 59.453125 -29.546875 L 59.453125 -29.4375 C 67.398438 -22.382812 72.628906 -17.476562 75.140625 -14.71875 C 76.253906 -12.851562 76.8125 -11.082031 76.8125 -9.40625 C 76.8125 -5.351562 74.554688 -2.328125 70.046875 -0.328125 C 69.148438 -0.109375 68.484375 0 68.046875 0 L 65.90625 0 C 63.394531 0 60.082031 -2.21875 55.96875 -6.65625 C 54.53125 -7.84375 46.398438 -15.273438 31.578125 -28.953125 L 19.34375 -28.953125 L 19.34375 -9.234375 C 19.34375 -5.046875 16.921875 -2.019531 12.078125 -0.15625 C 11.546875 -0.0507812 11.101562 0 10.75 0 L 8.59375 0 C 5.332031 0 2.664062 -1.96875 0.59375 -5.90625 C 0.195312 -6.945312 0 -7.859375 0 -8.640625 L 0 -68.046875 C 0 -71.953125 2.289062 -74.835938 6.875 -76.703125 C 7.664062 -76.910156 8.382812 -77.015625 9.03125 -77.015625 Z M 19.34375 -57.90625 L 19.34375 -47.90625 L 58.546875 -47.90625 L 58.546875 -57.90625 Z M 19.34375 -57.90625 "/></g></g></g></svg>